<svg width="712" height="471" viewBox="0 0 712 471" fill="none" xmlns="http://www.w3.org/2000/svg">
<path d="M95.8121 458.276C94.8161 458.276 93.9281 458.024 93.1481 457.52C92.3801 457.004 91.7741 456.26 91.3301 455.288C90.8861 454.316 90.6641 453.164 90.6641 451.832C90.6641 450.5 90.8861 449.348 91.3301 448.376C91.7741 447.404 92.3801 446.666 93.1481 446.162C93.9281 445.646 94.8161 445.388 95.8121 445.388C96.7961 445.388 97.6721 445.646 98.4401 446.162C99.2201 446.666 99.8321 447.404 100.276 448.376C100.72 449.348 100.942 450.5 100.942 451.832C100.942 453.164 100.72 454.316 100.276 455.288C99.8321 456.26 99.2201 457.004 98.4401 457.52C97.6721 458.024 96.7961 458.276 95.8121 458.276ZM95.8121 456.674C96.8201 456.674 97.6241 456.26 98.2241 455.432C98.8361 454.604 99.1421 453.404 99.1421 451.832C99.1421 450.26 98.8361 449.06 98.2241 448.232C97.6241 447.404 96.8201 446.99 95.8121 446.99C94.7921 446.99 93.9761 447.404 93.3641 448.232C92.7641 449.06 92.4641 450.26 92.4641 451.832C92.4641 453.404 92.7641 454.604 93.3641 455.432C93.9761 456.26 94.7921 456.674 95.8121 456.674ZM107.818 458.276C106.822 458.276 105.934 458.024 105.154 457.52C104.386 457.004 103.78 456.26 103.336 455.288C102.892 454.316 102.67 453.164 102.67 451.832C102.67 450.5 102.892 449.348 103.336 448.376C103.78 447.404 104.386 446.666 105.154 446.162C105.934 445.646 106.822 445.388 107.818 445.388C108.802 445.388 109.678 445.646 110.446 446.162C111.226 446.666 111.838 447.404 112.282 448.376C112.726 449.348 112.948 450.5 112.948 451.832C112.948 453.164 112.726 454.316 112.282 455.288C111.838 456.26 111.226 457.004 110.446 457.52C109.678 458.024 108.802 458.276 107.818 458.276ZM107.818 456.674C108.826 456.674 109.63 456.26 110.23 455.432C110.842 454.604 111.148 453.404 111.148 451.832C111.148 450.26 110.842 449.06 110.23 448.232C109.63 447.404 108.826 446.99 107.818 446.99C106.798 446.99 105.982 447.404 105.37 448.232C104.77 449.06 104.47 450.26 104.47 451.832C104.47 453.404 104.77 454.604 105.37 455.432C105.982 456.26 106.798 456.674 107.818 456.674ZM115.864 450.968C115.528 450.968 115.24 450.854 115 450.626C114.76 450.386 114.64 450.086 114.64 449.726C114.64 449.378 114.76 449.09 115 448.862C115.24 448.622 115.528 448.502 115.864 448.502C116.2 448.502 116.482 448.616 116.71 448.844C116.938 449.072 117.052 449.366 117.052 449.726C117.052 450.086 116.932 450.386 116.692 450.626C116.464 450.854 116.188 450.968 115.864 450.968ZM115.864 458.24C115.528 458.24 115.24 458.126 115 457.898C114.76 457.658 114.64 457.358 114.64 456.998C114.64 456.65 114.76 456.362 115 456.134C115.24 455.894 115.528 455.774 115.864 455.774C116.2 455.774 116.482 455.888 116.71 456.116C116.938 456.344 117.052 456.638 117.052 456.998C117.052 457.358 116.932 457.658 116.692 457.898C116.464 458.126 116.188 458.24 115.864 458.24ZM123.902 458.276C122.906 458.276 122.018 458.024 121.238 457.52C120.47 457.004 119.864 456.26 119.42 455.288C118.976 454.316 118.754 453.164 118.754 451.832C118.754 450.5 118.976 449.348 119.42 448.376C119.864 447.404 120.47 446.666 121.238 446.162C122.018 445.646 122.906 445.388 123.902 445.388C124.886 445.388 125.762 445.646 126.53 446.162C127.31 446.666 127.922 447.404 128.366 448.376C128.81 449.348 129.032 450.5 129.032 451.832C129.032 453.164 128.81 454.316 128.366 455.288C127.922 456.26 127.31 457.004 126.53 457.52C125.762 458.024 124.886 458.276 123.902 458.276ZM123.902 456.674C124.91 456.674 125.714 456.26 126.314 455.432C126.926 454.604 127.232 453.404 127.232 451.832C127.232 450.26 126.926 449.06 126.314 448.232C125.714 447.404 124.91 446.99 123.902 446.99C122.882 446.99 122.066 447.404 121.454 448.232C120.854 449.06 120.554 450.26 120.554 451.832C120.554 453.404 120.854 454.604 121.454 455.432C122.066 456.26 122.882 456.674 123.902 456.674ZM135.908 458.276C134.912 458.276 134.024 458.024 133.244 457.52C132.476 457.004 131.87 456.26 131.426 455.288C130.982 454.316 130.76 453.164 130.76 451.832C130.76 450.5 130.982 449.348 131.426 448.376C131.87 447.404 132.476 446.666 133.244 446.162C134.024 445.646 134.912 445.388 135.908 445.388C136.892 445.388 137.768 445.646 138.536 446.162C139.316 446.666 139.928 447.404 140.372 448.376C140.816 449.348 141.038 450.5 141.038 451.832C141.038 453.164 140.816 454.316 140.372 455.288C139.928 456.26 139.316 457.004 138.536 457.52C137.768 458.024 136.892 458.276 135.908 458.276ZM135.908 456.674C136.916 456.674 137.72 456.26 138.32 455.432C138.932 454.604 139.238 453.404 139.238 451.832C139.238 450.26 138.932 449.06 138.32 448.232C137.72 447.404 136.916 446.99 135.908 446.99C134.888 446.99 134.072 447.404 133.46 448.232C132.86 449.06 132.56 450.26 132.56 451.832C132.56 453.404 132.86 454.604 133.46 455.432C134.072 456.26 134.888 456.674 135.908 456.674Z" fill="#C4C4C4"/>
<path d="M184.53 458.276C183.534 458.276 182.646 458.024 181.866 457.52C181.098 457.004 180.492 456.26 180.048 455.288C179.604 454.316 179.382 453.164 179.382 451.832C179.382 450.5 179.604 449.348 180.048 448.376C180.492 447.404 181.098 446.666 181.866 446.162C182.646 445.646 183.534 445.388 184.53 445.388C185.514 445.388 186.39 445.646 187.158 446.162C187.938 446.666 188.55 447.404 188.994 448.376C189.438 449.348 189.66 450.5 189.66 451.832C189.66 453.164 189.438 454.316 188.994 455.288C188.55 456.26 187.938 457.004 187.158 457.52C186.39 458.024 185.514 458.276 184.53 458.276ZM184.53 456.674C185.538 456.674 186.342 456.26 186.942 455.432C187.554 454.604 187.86 453.404 187.86 451.832C187.86 450.26 187.554 449.06 186.942 448.232C186.342 447.404 185.538 446.99 184.53 446.99C183.51 446.99 182.694 447.404 182.082 448.232C181.482 449.06 181.182 450.26 181.182 451.832C181.182 453.404 181.482 454.604 182.082 455.432C182.694 456.26 183.51 456.674 184.53 456.674ZM202.35 455.036H199.956V458.132H198.21V455.036H191.208V453.776L197.652 445.532H199.596L193.422 453.488H198.264V450.752H199.956V453.488H202.35V455.036ZM204.74 450.968C204.404 450.968 204.116 450.854 203.876 450.626C203.636 450.386 203.516 450.086 203.516 449.726C203.516 449.378 203.636 449.09 203.876 448.862C204.116 448.622 204.404 448.502 204.74 448.502C205.076 448.502 205.358 448.616 205.586 448.844C205.814 449.072 205.928 449.366 205.928 449.726C205.928 450.086 205.808 450.386 205.568 450.626C205.34 450.854 205.064 450.968 204.74 450.968ZM204.74 458.24C204.404 458.24 204.116 458.126 203.876 457.898C203.636 457.658 203.516 457.358 203.516 456.998C203.516 456.65 203.636 456.362 203.876 456.134C204.116 455.894 204.404 455.774 204.74 455.774C205.076 455.774 205.358 455.888 205.586 456.116C205.814 456.344 205.928 456.638 205.928 456.998C205.928 457.358 205.808 457.658 205.568 457.898C205.34 458.126 205.064 458.24 204.74 458.24ZM212.778 458.276C211.782 458.276 210.894 458.024 210.114 457.52C209.346 457.004 208.74 456.26 208.296 455.288C207.852 454.316 207.63 453.164 207.63 451.832C207.63 450.5 207.852 449.348 208.296 448.376C208.74 447.404 209.346 446.666 210.114 446.162C210.894 445.646 211.782 445.388 212.778 445.388C213.762 445.388 214.638 445.646 215.406 446.162C216.186 446.666 216.798 447.404 217.242 448.376C217.686 449.348 217.908 450.5 217.908 451.832C217.908 453.164 217.686 454.316 217.242 455.288C216.798 456.26 216.186 457.004 215.406 457.52C214.638 458.024 213.762 458.276 212.778 458.276ZM212.778 456.674C213.786 456.674 214.59 456.26 215.19 455.432C215.802 454.604 216.108 453.404 216.108 451.832C216.108 450.26 215.802 449.06 215.19 448.232C214.59 447.404 213.786 446.99 212.778 446.99C211.758 446.99 210.942 447.404 210.33 448.232C209.73 449.06 209.43 450.26 209.43 451.832C209.43 453.404 209.73 454.604 210.33 455.432C210.942 456.26 211.758 456.674 212.778 456.674ZM224.784 458.276C223.788 458.276 222.9 458.024 222.12 457.52C221.352 457.004 220.746 456.26 220.302 455.288C219.858 454.316 219.636 453.164 219.636 451.832C219.636 450.5 219.858 449.348 220.302 448.376C220.746 447.404 221.352 446.666 222.12 446.162C222.9 445.646 223.788 445.388 224.784 445.388C225.768 445.388 226.644 445.646 227.412 446.162C228.192 446.666 228.804 447.404 229.248 448.376C229.692 449.348 229.914 450.5 229.914 451.832C229.914 453.164 229.692 454.316 229.248 455.288C228.804 456.26 228.192 457.004 227.412 457.52C226.644 458.024 225.768 458.276 224.784 458.276ZM224.784 456.674C225.792 456.674 226.596 456.26 227.196 455.432C227.808 454.604 228.114 453.404 228.114 451.832C228.114 450.26 227.808 449.06 227.196 448.232C226.596 447.404 225.792 446.99 224.784 446.99C223.764 446.99 222.948 447.404 222.336 448.232C221.736 449.06 221.436 450.26 221.436 451.832C221.436 453.404 221.736 454.604 222.336 455.432C222.948 456.26 223.764 456.674 224.784 456.674Z" fill="#C4C4C4"/>
<path d="M273.619 458.276C272.623 458.276 271.735 458.024 270.955 457.52C270.187 457.004 269.581 456.26 269.137 455.288C268.693 454.316 268.471 453.164 268.471 451.832C268.471 450.5 268.693 449.348 269.137 448.376C269.581 447.404 270.187 446.666 270.955 446.162C271.735 445.646 272.623 445.388 273.619 445.388C274.603 445.388 275.479 445.646 276.247 446.162C277.027 446.666 277.639 447.404 278.083 448.376C278.527 449.348 278.749 450.5 278.749 451.832C278.749 453.164 278.527 454.316 278.083 455.288C277.639 456.26 277.027 457.004 276.247 457.52C275.479 458.024 274.603 458.276 273.619 458.276ZM273.619 456.674C274.627 456.674 275.431 456.26 276.031 455.432C276.643 454.604 276.949 453.404 276.949 451.832C276.949 450.26 276.643 449.06 276.031 448.232C275.431 447.404 274.627 446.99 273.619 446.99C272.599 446.99 271.783 447.404 271.171 448.232C270.571 449.06 270.271 450.26 270.271 451.832C270.271 453.404 270.571 454.604 271.171 455.432C271.783 456.26 272.599 456.674 273.619 456.674ZM288.181 451.526C288.901 451.802 289.453 452.198 289.837 452.714C290.221 453.23 290.413 453.848 290.413 454.568C290.413 455.324 290.209 455.984 289.801 456.548C289.393 457.1 288.811 457.526 288.055 457.826C287.299 458.126 286.411 458.276 285.391 458.276C284.383 458.276 283.501 458.126 282.745 457.826C282.001 457.526 281.425 457.1 281.017 456.548C280.609 455.984 280.405 455.324 280.405 454.568C280.405 453.848 280.591 453.23 280.963 452.714C281.347 452.198 281.899 451.802 282.619 451.526C282.043 451.25 281.605 450.884 281.305 450.428C281.005 449.972 280.855 449.432 280.855 448.808C280.855 448.112 281.041 447.506 281.413 446.99C281.797 446.474 282.331 446.078 283.015 445.802C283.699 445.526 284.491 445.388 285.391 445.388C286.303 445.388 287.101 445.526 287.785 445.802C288.481 446.078 289.015 446.474 289.387 446.99C289.771 447.506 289.963 448.112 289.963 448.808C289.963 449.42 289.807 449.96 289.495 450.428C289.195 450.884 288.757 451.25 288.181 451.526ZM285.391 446.846C284.539 446.846 283.867 447.032 283.375 447.404C282.883 447.764 282.637 448.256 282.637 448.88C282.637 449.504 282.877 449.996 283.357 450.356C283.849 450.716 284.527 450.896 285.391 450.896C286.267 450.896 286.951 450.716 287.443 450.356C287.947 449.996 288.199 449.504 288.199 448.88C288.199 448.256 287.941 447.764 287.425 447.404C286.921 447.032 286.243 446.846 285.391 446.846ZM285.391 456.818C286.387 456.818 287.173 456.614 287.749 456.206C288.325 455.786 288.613 455.222 288.613 454.514C288.613 453.818 288.325 453.272 287.749 452.876C287.173 452.468 286.387 452.264 285.391 452.264C284.395 452.264 283.615 452.468 283.051 452.876C282.487 453.272 282.205 453.818 282.205 454.514C282.205 455.222 282.487 455.786 283.051 456.206C283.615 456.614 284.395 456.818 285.391 456.818ZM293.249 450.968C292.913 450.968 292.625 450.854 292.385 450.626C292.145 450.386 292.025 450.086 292.025 449.726C292.025 449.378 292.145 449.09 292.385 448.862C292.625 448.622 292.913 448.502 293.249 448.502C293.585 448.502 293.867 448.616 294.095 448.844C294.323 449.072 294.437 449.366 294.437 449.726C294.437 450.086 294.317 450.386 294.077 450.626C293.849 450.854 293.573 450.968 293.249 450.968ZM293.249 458.24C292.913 458.24 292.625 458.126 292.385 457.898C292.145 457.658 292.025 457.358 292.025 456.998C292.025 456.65 292.145 456.362 292.385 456.134C292.625 455.894 292.913 455.774 293.249 455.774C293.585 455.774 293.867 455.888 294.095 456.116C294.323 456.344 294.437 456.638 294.437 456.998C294.437 457.358 294.317 457.658 294.077 457.898C293.849 458.126 293.573 458.24 293.249 458.24ZM301.287 458.276C300.291 458.276 299.403 458.024 298.623 457.52C297.855 457.004 297.249 456.26 296.805 455.288C296.361 454.316 296.139 453.164 296.139 451.832C296.139 450.5 296.361 449.348 296.805 448.376C297.249 447.404 297.855 446.666 298.623 446.162C299.403 445.646 300.291 445.388 301.287 445.388C302.271 445.388 303.147 445.646 303.915 446.162C304.695 446.666 305.307 447.404 305.751 448.376C306.195 449.348 306.417 450.5 306.417 451.832C306.417 453.164 306.195 454.316 305.751 455.288C305.307 456.26 304.695 457.004 303.915 457.52C303.147 458.024 302.271 458.276 301.287 458.276ZM301.287 456.674C302.295 456.674 303.099 456.26 303.699 455.432C304.311 454.604 304.617 453.404 304.617 451.832C304.617 450.26 304.311 449.06 303.699 448.232C303.099 447.404 302.295 446.99 301.287 446.99C300.267 446.99 299.451 447.404 298.839 448.232C298.239 449.06 297.939 450.26 297.939 451.832C297.939 453.404 298.239 454.604 298.839 455.432C299.451 456.26 300.267 456.674 301.287 456.674ZM313.293 458.276C312.297 458.276 311.409 458.024 310.629 457.52C309.861 457.004 309.255 456.26 308.811 455.288C308.367 454.316 308.145 453.164 308.145 451.832C308.145 450.5 308.367 449.348 308.811 448.376C309.255 447.404 309.861 446.666 310.629 446.162C311.409 445.646 312.297 445.388 313.293 445.388C314.277 445.388 315.153 445.646 315.921 446.162C316.701 446.666 317.313 447.404 317.757 448.376C318.201 449.348 318.423 450.5 318.423 451.832C318.423 453.164 318.201 454.316 317.757 455.288C317.313 456.26 316.701 457.004 315.921 457.52C315.153 458.024 314.277 458.276 313.293 458.276ZM313.293 456.674C314.301 456.674 315.105 456.26 315.705 455.432C316.317 454.604 316.623 453.404 316.623 451.832C316.623 450.26 316.317 449.06 315.705 448.232C315.105 447.404 314.301 446.99 313.293 446.99C312.273 446.99 311.457 447.404 310.845 448.232C310.245 449.06 309.945 450.26 309.945 451.832C309.945 453.404 310.245 454.604 310.845 455.432C311.457 456.26 312.273 456.674 313.293 456.674Z" fill="#C4C4C4"/>
<path d="M361.022 445.532V458.132H359.24V447.098H356.396V445.532H361.022ZM372.634 456.566V458.132H363.58V456.908L368.71 451.958C369.334 451.358 369.754 450.842 369.97 450.41C370.186 449.966 370.294 449.522 370.294 449.078C370.294 448.418 370.06 447.908 369.592 447.548C369.136 447.176 368.476 446.99 367.612 446.99C366.22 446.99 365.146 447.446 364.39 448.358L363.166 447.296C363.658 446.696 364.3 446.228 365.092 445.892C365.896 445.556 366.79 445.388 367.774 445.388C369.094 445.388 370.144 445.706 370.924 446.342C371.704 446.966 372.094 447.818 372.094 448.898C372.094 449.57 371.95 450.206 371.662 450.806C371.374 451.406 370.828 452.09 370.024 452.858L366.172 456.566H372.634ZM375.302 450.968C374.966 450.968 374.678 450.854 374.438 450.626C374.198 450.386 374.078 450.086 374.078 449.726C374.078 449.378 374.198 449.09 374.438 448.862C374.678 448.622 374.966 448.502 375.302 448.502C375.638 448.502 375.92 448.616 376.148 448.844C376.376 449.072 376.49 449.366 376.49 449.726C376.49 450.086 376.37 450.386 376.13 450.626C375.902 450.854 375.626 450.968 375.302 450.968ZM375.302 458.24C374.966 458.24 374.678 458.126 374.438 457.898C374.198 457.658 374.078 457.358 374.078 456.998C374.078 456.65 374.198 456.362 374.438 456.134C374.678 455.894 374.966 455.774 375.302 455.774C375.638 455.774 375.92 455.888 376.148 456.116C376.376 456.344 376.49 456.638 376.49 456.998C376.49 457.358 376.37 457.658 376.13 457.898C375.902 458.126 375.626 458.24 375.302 458.24ZM383.341 458.276C382.345 458.276 381.457 458.024 380.677 457.52C379.909 457.004 379.303 456.26 378.859 455.288C378.415 454.316 378.193 453.164 378.193 451.832C378.193 450.5 378.415 449.348 378.859 448.376C379.303 447.404 379.909 446.666 380.677 446.162C381.457 445.646 382.345 445.388 383.341 445.388C384.325 445.388 385.201 445.646 385.969 446.162C386.749 446.666 387.361 447.404 387.805 448.376C388.249 449.348 388.471 450.5 388.471 451.832C388.471 453.164 388.249 454.316 387.805 455.288C387.361 456.26 386.749 457.004 385.969 457.52C385.201 458.024 384.325 458.276 383.341 458.276ZM383.341 456.674C384.349 456.674 385.153 456.26 385.753 455.432C386.365 454.604 386.671 453.404 386.671 451.832C386.671 450.26 386.365 449.06 385.753 448.232C385.153 447.404 384.349 446.99 383.341 446.99C382.321 446.99 381.505 447.404 380.893 448.232C380.293 449.06 379.993 450.26 379.993 451.832C379.993 453.404 380.293 454.604 380.893 455.432C381.505 456.26 382.321 456.674 383.341 456.674ZM395.346 458.276C394.35 458.276 393.462 458.024 392.682 457.52C391.914 457.004 391.308 456.26 390.864 455.288C390.42 454.316 390.198 453.164 390.198 451.832C390.198 450.5 390.42 449.348 390.864 448.376C391.308 447.404 391.914 446.666 392.682 446.162C393.462 445.646 394.35 445.388 395.346 445.388C396.33 445.388 397.206 445.646 397.974 446.162C398.754 446.666 399.366 447.404 399.81 448.376C400.254 449.348 400.476 450.5 400.476 451.832C400.476 453.164 400.254 454.316 399.81 455.288C399.366 456.26 398.754 457.004 397.974 457.52C397.206 458.024 396.33 458.276 395.346 458.276ZM395.346 456.674C396.354 456.674 397.158 456.26 397.758 455.432C398.37 454.604 398.676 453.404 398.676 451.832C398.676 450.26 398.37 449.06 397.758 448.232C397.158 447.404 396.354 446.99 395.346 446.99C394.326 446.99 393.51 447.404 392.898 448.232C392.298 449.06 391.998 450.26 391.998 451.832C391.998 453.404 392.298 454.604 392.898 455.432C393.51 456.26 394.326 456.674 395.346 456.674Z" fill="#C4C4C4"/>
<path d="M450.296 445.532V458.132H448.514V447.098H445.67V445.532H450.296ZM458.488 450.482C459.316 450.482 460.054 450.638 460.702 450.95C461.362 451.262 461.878 451.712 462.25 452.3C462.622 452.876 462.808 453.542 462.808 454.298C462.808 455.09 462.61 455.786 462.214 456.386C461.83 456.986 461.296 457.454 460.612 457.79C459.94 458.114 459.184 458.276 458.344 458.276C456.652 458.276 455.344 457.73 454.42 456.638C453.508 455.546 453.052 453.998 453.052 451.994C453.052 450.59 453.298 449.396 453.79 448.412C454.294 447.416 454.99 446.666 455.878 446.162C456.778 445.646 457.822 445.388 459.01 445.388C459.622 445.388 460.198 445.454 460.738 445.586C461.278 445.706 461.746 445.886 462.142 446.126L461.458 447.53C460.858 447.134 460.054 446.936 459.046 446.936C457.738 446.936 456.712 447.344 455.968 448.16C455.224 448.964 454.852 450.14 454.852 451.688C454.852 451.88 454.858 452.03 454.87 452.138C455.23 451.598 455.722 451.19 456.346 450.914C456.982 450.626 457.696 450.482 458.488 450.482ZM458.272 456.818C459.1 456.818 459.772 456.596 460.288 456.152C460.804 455.708 461.062 455.114 461.062 454.37C461.062 453.626 460.798 453.038 460.27 452.606C459.754 452.162 459.058 451.94 458.182 451.94C457.618 451.94 457.114 452.048 456.67 452.264C456.238 452.48 455.896 452.774 455.644 453.146C455.404 453.518 455.284 453.932 455.284 454.388C455.284 454.832 455.398 455.24 455.626 455.612C455.866 455.972 456.208 456.266 456.652 456.494C457.108 456.71 457.648 456.818 458.272 456.818ZM465.349 450.968C465.013 450.968 464.725 450.854 464.485 450.626C464.245 450.386 464.125 450.086 464.125 449.726C464.125 449.378 464.245 449.09 464.485 448.862C464.725 448.622 465.013 448.502 465.349 448.502C465.685 448.502 465.967 448.616 466.195 448.844C466.423 449.072 466.537 449.366 466.537 449.726C466.537 450.086 466.417 450.386 466.177 450.626C465.949 450.854 465.673 450.968 465.349 450.968ZM465.349 458.24C465.013 458.24 464.725 458.126 464.485 457.898C464.245 457.658 464.125 457.358 464.125 456.998C464.125 456.65 464.245 456.362 464.485 456.134C464.725 455.894 465.013 455.774 465.349 455.774C465.685 455.774 465.967 455.888 466.195 456.116C466.423 456.344 466.537 456.638 466.537 456.998C466.537 457.358 466.417 457.658 466.177 457.898C465.949 458.126 465.673 458.24 465.349 458.24ZM473.388 458.276C472.392 458.276 471.504 458.024 470.724 457.52C469.956 457.004 469.35 456.26 468.906 455.288C468.462 454.316 468.24 453.164 468.24 451.832C468.24 450.5 468.462 449.348 468.906 448.376C469.35 447.404 469.956 446.666 470.724 446.162C471.504 445.646 472.392 445.388 473.388 445.388C474.372 445.388 475.248 445.646 476.016 446.162C476.796 446.666 477.408 447.404 477.852 448.376C478.296 449.348 478.518 450.5 478.518 451.832C478.518 453.164 478.296 454.316 477.852 455.288C477.408 456.26 476.796 457.004 476.016 457.52C475.248 458.024 474.372 458.276 473.388 458.276ZM473.388 456.674C474.396 456.674 475.2 456.26 475.8 455.432C476.412 454.604 476.718 453.404 476.718 451.832C476.718 450.26 476.412 449.06 475.8 448.232C475.2 447.404 474.396 446.99 473.388 446.99C472.368 446.99 471.552 447.404 470.94 448.232C470.34 449.06 470.04 450.26 470.04 451.832C470.04 453.404 470.34 454.604 470.94 455.432C471.552 456.26 472.368 456.674 473.388 456.674ZM485.393 458.276C484.397 458.276 483.509 458.024 482.729 457.52C481.961 457.004 481.355 456.26 480.911 455.288C480.467 454.316 480.245 453.164 480.245 451.832C480.245 450.5 480.467 449.348 480.911 448.376C481.355 447.404 481.961 446.666 482.729 446.162C483.509 445.646 484.397 445.388 485.393 445.388C486.377 445.388 487.253 445.646 488.021 446.162C488.801 446.666 489.413 447.404 489.857 448.376C490.301 449.348 490.523 450.5 490.523 451.832C490.523 453.164 490.301 454.316 489.857 455.288C489.413 456.26 488.801 457.004 488.021 457.52C487.253 458.024 486.377 458.276 485.393 458.276ZM485.393 456.674C486.401 456.674 487.205 456.26 487.805 455.432C488.417 454.604 488.723 453.404 488.723 451.832C488.723 450.26 488.417 449.06 487.805 448.232C487.205 447.404 486.401 446.99 485.393 446.99C484.373 446.99 483.557 447.404 482.945 448.232C482.345 449.06 482.045 450.26 482.045 451.832C482.045 453.404 482.345 454.604 482.945 455.432C483.557 456.26 484.373 456.674 485.393 456.674Z" fill="#C4C4C4"/>
<path d="M543.51 456.566V458.132H534.456V456.908L539.586 451.958C540.21 451.358 540.63 450.842 540.846 450.41C541.062 449.966 541.17 449.522 541.17 449.078C541.17 448.418 540.936 447.908 540.468 447.548C540.012 447.176 539.352 446.99 538.488 446.99C537.096 446.99 536.022 447.446 535.266 448.358L534.042 447.296C534.534 446.696 535.176 446.228 535.968 445.892C536.772 445.556 537.666 445.388 538.65 445.388C539.97 445.388 541.02 445.706 541.8 446.342C542.58 446.966 542.97 447.818 542.97 448.898C542.97 449.57 542.826 450.206 542.538 450.806C542.25 451.406 541.704 452.09 540.9 452.858L537.048 456.566H543.51ZM550.085 458.276C549.089 458.276 548.201 458.024 547.421 457.52C546.653 457.004 546.047 456.26 545.603 455.288C545.159 454.316 544.937 453.164 544.937 451.832C544.937 450.5 545.159 449.348 545.603 448.376C546.047 447.404 546.653 446.666 547.421 446.162C548.201 445.646 549.089 445.388 550.085 445.388C551.069 445.388 551.945 445.646 552.713 446.162C553.493 446.666 554.105 447.404 554.549 448.376C554.993 449.348 555.215 450.5 555.215 451.832C555.215 453.164 554.993 454.316 554.549 455.288C554.105 456.26 553.493 457.004 552.713 457.52C551.945 458.024 551.069 458.276 550.085 458.276ZM550.085 456.674C551.093 456.674 551.897 456.26 552.497 455.432C553.109 454.604 553.415 453.404 553.415 451.832C553.415 450.26 553.109 449.06 552.497 448.232C551.897 447.404 551.093 446.99 550.085 446.99C549.065 446.99 548.249 447.404 547.637 448.232C547.037 449.06 546.737 450.26 546.737 451.832C546.737 453.404 547.037 454.604 547.637 455.432C548.249 456.26 549.065 456.674 550.085 456.674ZM558.131 450.968C557.795 450.968 557.507 450.854 557.267 450.626C557.027 450.386 556.907 450.086 556.907 449.726C556.907 449.378 557.027 449.09 557.267 448.862C557.507 448.622 557.795 448.502 558.131 448.502C558.467 448.502 558.749 448.616 558.977 448.844C559.205 449.072 559.319 449.366 559.319 449.726C559.319 450.086 559.199 450.386 558.959 450.626C558.731 450.854 558.455 450.968 558.131 450.968ZM558.131 458.24C557.795 458.24 557.507 458.126 557.267 457.898C557.027 457.658 556.907 457.358 556.907 456.998C556.907 456.65 557.027 456.362 557.267 456.134C557.507 455.894 557.795 455.774 558.131 455.774C558.467 455.774 558.749 455.888 558.977 456.116C559.205 456.344 559.319 456.638 559.319 456.998C559.319 457.358 559.199 457.658 558.959 457.898C558.731 458.126 558.455 458.24 558.131 458.24ZM566.169 458.276C565.173 458.276 564.285 458.024 563.505 457.52C562.737 457.004 562.131 456.26 561.687 455.288C561.243 454.316 561.021 453.164 561.021 451.832C561.021 450.5 561.243 449.348 561.687 448.376C562.131 447.404 562.737 446.666 563.505 446.162C564.285 445.646 565.173 445.388 566.169 445.388C567.153 445.388 568.029 445.646 568.797 446.162C569.577 446.666 570.189 447.404 570.633 448.376C571.077 449.348 571.299 450.5 571.299 451.832C571.299 453.164 571.077 454.316 570.633 455.288C570.189 456.26 569.577 457.004 568.797 457.52C568.029 458.024 567.153 458.276 566.169 458.276ZM566.169 456.674C567.177 456.674 567.981 456.26 568.581 455.432C569.193 454.604 569.499 453.404 569.499 451.832C569.499 450.26 569.193 449.06 568.581 448.232C567.981 447.404 567.177 446.99 566.169 446.99C565.149 446.99 564.333 447.404 563.721 448.232C563.121 449.06 562.821 450.26 562.821 451.832C562.821 453.404 563.121 454.604 563.721 455.432C564.333 456.26 565.149 456.674 566.169 456.674ZM578.175 458.276C577.179 458.276 576.291 458.024 575.511 457.52C574.743 457.004 574.137 456.26 573.693 455.288C573.249 454.316 573.027 453.164 573.027 451.832C573.027 450.5 573.249 449.348 573.693 448.376C574.137 447.404 574.743 446.666 575.511 446.162C576.291 445.646 577.179 445.388 578.175 445.388C579.159 445.388 580.035 445.646 580.803 446.162C581.583 446.666 582.195 447.404 582.639 448.376C583.083 449.348 583.305 450.5 583.305 451.832C583.305 453.164 583.083 454.316 582.639 455.288C582.195 456.26 581.583 457.004 580.803 457.52C580.035 458.024 579.159 458.276 578.175 458.276ZM578.175 456.674C579.183 456.674 579.987 456.26 580.587 455.432C581.199 454.604 581.505 453.404 581.505 451.832C581.505 450.26 581.199 449.06 580.587 448.232C579.987 447.404 579.183 446.99 578.175 446.99C577.155 446.99 576.339 447.404 575.727 448.232C575.127 449.06 574.827 450.26 574.827 451.832C574.827 453.404 575.127 454.604 575.727 455.432C576.339 456.26 577.155 456.674 578.175 456.674Z" fill="#C4C4C4"/>
<path d="M626.877 458.276C625.881 458.276 624.993 458.024 624.213 457.52C623.445 457.004 622.839 456.26 622.395 455.288C621.951 454.316 621.729 453.164 621.729 451.832C621.729 450.5 621.951 449.348 622.395 448.376C622.839 447.404 623.445 446.666 624.213 446.162C624.993 445.646 625.881 445.388 626.877 445.388C627.861 445.388 628.737 445.646 629.505 446.162C630.285 446.666 630.897 447.404 631.341 448.376C631.785 449.348 632.007 450.5 632.007 451.832C632.007 453.164 631.785 454.316 631.341 455.288C630.897 456.26 630.285 457.004 629.505 457.52C628.737 458.024 627.861 458.276 626.877 458.276ZM626.877 456.674C627.885 456.674 628.689 456.26 629.289 455.432C629.901 454.604 630.207 453.404 630.207 451.832C630.207 450.26 629.901 449.06 629.289 448.232C628.689 447.404 627.885 446.99 626.877 446.99C625.857 446.99 625.041 447.404 624.429 448.232C623.829 449.06 623.529 450.26 623.529 451.832C623.529 453.404 623.829 454.604 624.429 455.432C625.041 456.26 625.857 456.674 626.877 456.674ZM638.882 458.276C637.886 458.276 636.998 458.024 636.218 457.52C635.45 457.004 634.844 456.26 634.4 455.288C633.956 454.316 633.734 453.164 633.734 451.832C633.734 450.5 633.956 449.348 634.4 448.376C634.844 447.404 635.45 446.666 636.218 446.162C636.998 445.646 637.886 445.388 638.882 445.388C639.866 445.388 640.742 445.646 641.51 446.162C642.29 446.666 642.902 447.404 643.346 448.376C643.79 449.348 644.012 450.5 644.012 451.832C644.012 453.164 643.79 454.316 643.346 455.288C642.902 456.26 642.29 457.004 641.51 457.52C640.742 458.024 639.866 458.276 638.882 458.276ZM638.882 456.674C639.89 456.674 640.694 456.26 641.294 455.432C641.906 454.604 642.212 453.404 642.212 451.832C642.212 450.26 641.906 449.06 641.294 448.232C640.694 447.404 639.89 446.99 638.882 446.99C637.862 446.99 637.046 447.404 636.434 448.232C635.834 449.06 635.534 450.26 635.534 451.832C635.534 453.404 635.834 454.604 636.434 455.432C637.046 456.26 637.862 456.674 638.882 456.674ZM646.928 450.968C646.592 450.968 646.304 450.854 646.064 450.626C645.824 450.386 645.704 450.086 645.704 449.726C645.704 449.378 645.824 449.09 646.064 448.862C646.304 448.622 646.592 448.502 646.928 448.502C647.264 448.502 647.546 448.616 647.774 448.844C648.002 449.072 648.116 449.366 648.116 449.726C648.116 450.086 647.996 450.386 647.756 450.626C647.528 450.854 647.252 450.968 646.928 450.968ZM646.928 458.24C646.592 458.24 646.304 458.126 646.064 457.898C645.824 457.658 645.704 457.358 645.704 456.998C645.704 456.65 645.824 456.362 646.064 456.134C646.304 455.894 646.592 455.774 646.928 455.774C647.264 455.774 647.546 455.888 647.774 456.116C648.002 456.344 648.116 456.638 648.116 456.998C648.116 457.358 647.996 457.658 647.756 457.898C647.528 458.126 647.252 458.24 646.928 458.24ZM654.966 458.276C653.97 458.276 653.082 458.024 652.302 457.52C651.534 457.004 650.928 456.26 650.484 455.288C650.04 454.316 649.818 453.164 649.818 451.832C649.818 450.5 650.04 449.348 650.484 448.376C650.928 447.404 651.534 446.666 652.302 446.162C653.082 445.646 653.97 445.388 654.966 445.388C655.95 445.388 656.826 445.646 657.594 446.162C658.374 446.666 658.986 447.404 659.43 448.376C659.874 449.348 660.096 450.5 660.096 451.832C660.096 453.164 659.874 454.316 659.43 455.288C658.986 456.26 658.374 457.004 657.594 457.52C656.826 458.024 655.95 458.276 654.966 458.276ZM654.966 456.674C655.974 456.674 656.778 456.26 657.378 455.432C657.99 454.604 658.296 453.404 658.296 451.832C658.296 450.26 657.99 449.06 657.378 448.232C656.778 447.404 655.974 446.99 654.966 446.99C653.946 446.99 653.13 447.404 652.518 448.232C651.918 449.06 651.618 450.26 651.618 451.832C651.618 453.404 651.918 454.604 652.518 455.432C653.13 456.26 653.946 456.674 654.966 456.674ZM666.972 458.276C665.976 458.276 665.088 458.024 664.308 457.52C663.54 457.004 662.934 456.26 662.49 455.288C662.046 454.316 661.824 453.164 661.824 451.832C661.824 450.5 662.046 449.348 662.49 448.376C662.934 447.404 663.54 446.666 664.308 446.162C665.088 445.646 665.976 445.388 666.972 445.388C667.956 445.388 668.832 445.646 669.6 446.162C670.38 446.666 670.992 447.404 671.436 448.376C671.88 449.348 672.102 450.5 672.102 451.832C672.102 453.164 671.88 454.316 671.436 455.288C670.992 456.26 670.38 457.004 669.6 457.52C668.832 458.024 667.956 458.276 666.972 458.276ZM666.972 456.674C667.98 456.674 668.784 456.26 669.384 455.432C669.996 454.604 670.302 453.404 670.302 451.832C670.302 450.26 669.996 449.06 669.384 448.232C668.784 447.404 667.98 446.99 666.972 446.99C665.952 446.99 665.136 447.404 664.524 448.232C663.924 449.06 663.624 450.26 663.624 451.832C663.624 453.404 663.924 454.604 664.524 455.432C665.136 456.26 665.952 456.674 666.972 456.674Z" fill="#C4C4C4"/>
<line x1="84.3888" y1="461.881" x2="84.3888" y2="442.132" stroke="#444345" stroke-width="4" stroke-linecap="round" stroke-linejoin="round"/>
<line x1="173.226" y1="461.881" x2="173.226" y2="442.132" stroke="#444345" stroke-width="4" stroke-linecap="round" stroke-linejoin="round"/>
<line x1="262.059" y1="461.881" x2="262.059" y2="442.132" stroke="#444345" stroke-width="4" stroke-linecap="round" stroke-linejoin="round"/>
<line x1="350.896" y1="461.881" x2="350.896" y2="442.132" stroke="#444345" stroke-width="4" stroke-linecap="round" stroke-linejoin="round"/>
<line x1="439.733" y1="461.881" x2="439.733" y2="442.132" stroke="#444345" stroke-width="4" stroke-linecap="round" stroke-linejoin="round"/>
<line x1="528.567" y1="461.881" x2="528.567" y2="442.132" stroke="#444345" stroke-width="4" stroke-linecap="round" stroke-linejoin="round"/>
<line x1="617.404" y1="461.881" x2="617.404" y2="442.132" stroke="#444345" stroke-width="4" stroke-linecap="round" stroke-linejoin="round"/>
<line x1="7.00021" y1="443" x2="23.6911" y2="443" stroke="#444345" stroke-width="4" stroke-linecap="round" stroke-linejoin="round"/>
<line x1="7.00021" y1="421" x2="45.827" y2="421" stroke="#444345" stroke-width="4" stroke-linecap="round" stroke-linejoin="round"/>
<line x1="7.00021" y1="399" x2="23.6911" y2="399" stroke="#444345" stroke-width="4" stroke-linecap="round" stroke-linejoin="round"/>
<line x1="7.00021" y1="377" x2="45.827" y2="377" stroke="#444345" stroke-width="4" stroke-linecap="round" stroke-linejoin="round"/>
<line x1="7.00021" y1="355" x2="23.6911" y2="355" stroke="#444345" stroke-width="4" stroke-linecap="round" stroke-linejoin="round"/>
<line x1="7.00021" y1="333" x2="45.827" y2="333" stroke="#444345" stroke-width="4" stroke-linecap="round" stroke-linejoin="round"/>
<line x1="7.24435" y1="311" x2="23.9352" y2="311" stroke="#444345" stroke-width="4" stroke-linecap="round" stroke-linejoin="round"/>
<line x1="7.00021" y1="289" x2="45.827" y2="289" stroke="#444345" stroke-width="4" stroke-linecap="round" stroke-linejoin="round"/>
<line x1="7.24435" y1="267" x2="23.9352" y2="267" stroke="#444345" stroke-width="4" stroke-linecap="round" stroke-linejoin="round"/>
<line x1="7.00021" y1="245" x2="45.827" y2="245" stroke="#444345" stroke-width="4" stroke-linecap="round" stroke-linejoin="round"/>
<line x1="7.24435" y1="223" x2="23.9352" y2="223" stroke="#444345" stroke-width="4" stroke-linecap="round" stroke-linejoin="round"/>
<line x1="7.00021" y1="201" x2="45.827" y2="201" stroke="#444345" stroke-width="4" stroke-linecap="round" stroke-linejoin="round"/>
<line x1="7.24435" y1="179" x2="23.9352" y2="179" stroke="#444345" stroke-width="4" stroke-linecap="round" stroke-linejoin="round"/>
<line x1="7.00021" y1="157" x2="45.827" y2="157" stroke="#444345" stroke-width="4" stroke-linecap="round" stroke-linejoin="round"/>
<line x1="7.24435" y1="135" x2="23.9352" y2="135" stroke="#444345" stroke-width="4" stroke-linecap="round" stroke-linejoin="round"/>
<line x1="7.24435" y1="91" x2="23.9352" y2="91" stroke="#444345" stroke-width="4" stroke-linecap="round" stroke-linejoin="round"/>
<line x1="7.00021" y1="69" x2="45.827" y2="69" stroke="#444345" stroke-width="4" stroke-linecap="round" stroke-linejoin="round"/>
<line x1="7.00021" y1="25" x2="45.827" y2="25" stroke="#444345" stroke-width="4" stroke-linecap="round" stroke-linejoin="round"/>
<line x1="7.24435" y1="47" x2="23.9352" y2="47" stroke="#444345" stroke-width="4" stroke-linecap="round" stroke-linejoin="round"/>
<line x1="7.00021" y1="113" x2="45.827" y2="113" stroke="#444345" stroke-width="4" stroke-linecap="round" stroke-linejoin="round"/>
<line x1="2" y1="-2" x2="18.6909" y2="-2" transform="matrix(-1 0 0 1 710.692 445)" stroke="#444345" stroke-width="4" stroke-linecap="round" stroke-linejoin="round"/>
<line x1="2" y1="-2" x2="40.8268" y2="-2" transform="matrix(-1 0 0 1 710.827 423)" stroke="#444345" stroke-width="4" stroke-linecap="round" stroke-linejoin="round"/>
<line x1="2" y1="-2" x2="18.6909" y2="-2" transform="matrix(-1 0 0 1 710.827 401)" stroke="#444345" stroke-width="4" stroke-linecap="round" stroke-linejoin="round"/>
<line x1="2" y1="-2" x2="40.8268" y2="-2" transform="matrix(-1 0 0 1 710.827 379)" stroke="#444345" stroke-width="4" stroke-linecap="round" stroke-linejoin="round"/>
<line x1="2" y1="-2" x2="18.6909" y2="-2" transform="matrix(-1 0 0 1 710.827 357)" stroke="#444345" stroke-width="4" stroke-linecap="round" stroke-linejoin="round"/>
<line x1="2" y1="-2" x2="40.8268" y2="-2" transform="matrix(-1 0 0 1 710.827 335)" stroke="#444345" stroke-width="4" stroke-linecap="round" stroke-linejoin="round"/>
<line x1="2" y1="-2" x2="18.6909" y2="-2" transform="matrix(-1 0 0 1 710.583 313)" stroke="#444345" stroke-width="4" stroke-linecap="round" stroke-linejoin="round"/>
<line x1="2" y1="-2" x2="40.8268" y2="-2" transform="matrix(-1 0 0 1 710.827 291)" stroke="#444345" stroke-width="4" stroke-linecap="round" stroke-linejoin="round"/>
<line x1="2" y1="-2" x2="18.6909" y2="-2" transform="matrix(-1 0 0 1 710.583 269)" stroke="#444345" stroke-width="4" stroke-linecap="round" stroke-linejoin="round"/>
<line x1="2" y1="-2" x2="40.8268" y2="-2" transform="matrix(-1 0 0 1 710.827 247)" stroke="#444345" stroke-width="4" stroke-linecap="round" stroke-linejoin="round"/>
<line x1="2" y1="-2" x2="18.6909" y2="-2" transform="matrix(-1 0 0 1 710.583 225)" stroke="#444345" stroke-width="4" stroke-linecap="round" stroke-linejoin="round"/>
<line x1="2" y1="-2" x2="40.8268" y2="-2" transform="matrix(-1 0 0 1 710.827 203)" stroke="#444345" stroke-width="4" stroke-linecap="round" stroke-linejoin="round"/>
<line x1="2" y1="-2" x2="18.6909" y2="-2" transform="matrix(-1 0 0 1 710.583 181)" stroke="#444345" stroke-width="4" stroke-linecap="round" stroke-linejoin="round"/>
<line x1="2" y1="-2" x2="40.8268" y2="-2" transform="matrix(-1 0 0 1 710.827 159)" stroke="#444345" stroke-width="4" stroke-linecap="round" stroke-linejoin="round"/>
<line x1="2" y1="-2" x2="18.6909" y2="-2" transform="matrix(-1 0 0 1 710.583 137)" stroke="#444345" stroke-width="4" stroke-linecap="round" stroke-linejoin="round"/>
<line x1="2" y1="-2" x2="18.6909" y2="-2" transform="matrix(-1 0 0 1 710.583 93)" stroke="#444345" stroke-width="4" stroke-linecap="round" stroke-linejoin="round"/>
<line x1="2" y1="-2" x2="40.8268" y2="-2" transform="matrix(-1 0 0 1 710.827 71)" stroke="#444345" stroke-width="4" stroke-linecap="round" stroke-linejoin="round"/>
<line x1="2" y1="-2" x2="40.8268" y2="-2" transform="matrix(-1 0 0 1 710.827 27)" stroke="#444345" stroke-width="4" stroke-linecap="round" stroke-linejoin="round"/>
<line x1="2" y1="-2" x2="18.6909" y2="-2" transform="matrix(-1 0 0 1 710.583 49)" stroke="#444345" stroke-width="4" stroke-linecap="round" stroke-linejoin="round"/>
<line x1="2" y1="-2" x2="40.8268" y2="-2" transform="matrix(-1 0 0 1 710.827 115)" stroke="#444345" stroke-width="4" stroke-linecap="round" stroke-linejoin="round"/>
<path d="M2.00021 15.1075L6.53332 2.50006L11 15.1075L6.5333 15.1075L2.00021 15.1075Z" fill="#444345"/>
<path d="M6.53332 464.271L6.5333 7.50006M6.53332 2.50006L2.00021 15.1075L11 15.1075L6.53332 2.50006Z" stroke="#444345" stroke-width="4" stroke-linecap="round" stroke-linejoin="round"/>
<path d="M697.999 460L709.593 464.701L697.999 469V464.701V460Z" fill="#444345"/>
<path d="M705.699 464.701L244.619 464.701L6.96613 464.701M709.593 464.701L697.999 460V469L709.593 464.701Z" stroke="#444345" stroke-width="4" stroke-linecap="round" stroke-linejoin="round"/>
<path d="M23.0888 405.2V415H21.7028V406.418H19.4908V405.2H23.0888ZM29.2365 415.112C28.4618 415.112 27.7711 414.916 27.1645 414.524C26.5671 414.123 26.0958 413.544 25.7505 412.788C25.4051 412.032 25.2325 411.136 25.2325 410.1C25.2325 409.064 25.4051 408.168 25.7505 407.412C26.0958 406.656 26.5671 406.082 27.1645 405.69C27.7711 405.289 28.4618 405.088 29.2365 405.088C30.0018 405.088 30.6831 405.289 31.2805 405.69C31.8871 406.082 32.3631 406.656 32.7085 407.412C33.0538 408.168 33.2265 409.064 33.2265 410.1C33.2265 411.136 33.0538 412.032 32.7085 412.788C32.3631 413.544 31.8871 414.123 31.2805 414.524C30.6831 414.916 30.0018 415.112 29.2365 415.112ZM29.2365 413.866C30.0205 413.866 30.6458 413.544 31.1125 412.9C31.5885 412.256 31.8265 411.323 31.8265 410.1C31.8265 408.877 31.5885 407.944 31.1125 407.3C30.6458 406.656 30.0205 406.334 29.2365 406.334C28.4431 406.334 27.8085 406.656 27.3325 407.3C26.8658 407.944 26.6325 408.877 26.6325 410.1C26.6325 411.323 26.8658 412.256 27.3325 412.9C27.8085 413.544 28.4431 413.866 29.2365 413.866Z" fill="#C4C4C4"/>
<path d="M25.5306 369.782V371H18.4886V370.048L22.4786 366.198C22.964 365.731 23.2906 365.33 23.4586 364.994C23.6266 364.649 23.7106 364.303 23.7106 363.958C23.7106 363.445 23.5286 363.048 23.1646 362.768C22.81 362.479 22.2966 362.334 21.6246 362.334C20.542 362.334 19.7066 362.689 19.1186 363.398L18.1666 362.572C18.5493 362.105 19.0486 361.741 19.6646 361.48C20.29 361.219 20.9853 361.088 21.7506 361.088C22.7773 361.088 23.594 361.335 24.2006 361.83C24.8073 362.315 25.1106 362.978 25.1106 363.818C25.1106 364.341 24.9986 364.835 24.7746 365.302C24.5506 365.769 24.126 366.301 23.5006 366.898L20.5046 369.782H25.5306ZM30.6447 371.112C29.87 371.112 29.1794 370.916 28.5727 370.524C27.9754 370.123 27.504 369.544 27.1587 368.788C26.8134 368.032 26.6407 367.136 26.6407 366.1C26.6407 365.064 26.8134 364.168 27.1587 363.412C27.504 362.656 27.9754 362.082 28.5727 361.69C29.1794 361.289 29.87 361.088 30.6447 361.088C31.41 361.088 32.0914 361.289 32.6887 361.69C33.2954 362.082 33.7714 362.656 34.1167 363.412C34.462 364.168 34.6347 365.064 34.6347 366.1C34.6347 367.136 34.462 368.032 34.1167 368.788C33.7714 369.544 33.2954 370.123 32.6887 370.524C32.0914 370.916 31.41 371.112 30.6447 371.112ZM30.6447 369.866C31.4287 369.866 32.054 369.544 32.5207 368.9C32.9967 368.256 33.2347 367.323 33.2347 366.1C33.2347 364.877 32.9967 363.944 32.5207 363.3C32.054 362.656 31.4287 362.334 30.6447 362.334C29.8514 362.334 29.2167 362.656 28.7407 363.3C28.274 363.944 28.0407 364.877 28.0407 366.1C28.0407 367.323 28.274 368.256 28.7407 368.9C29.2167 369.544 29.8514 369.866 30.6447 369.866Z" fill="#C4C4C4"/>
<path d="M23.3878 321.316C24.3491 321.409 25.0818 321.708 25.5858 322.212C26.0898 322.707 26.3418 323.341 26.3418 324.116C26.3418 324.676 26.2018 325.185 25.9218 325.642C25.6418 326.09 25.2218 326.449 24.6618 326.72C24.1111 326.981 23.4345 327.112 22.6318 327.112C21.9318 327.112 21.2598 327.009 20.6158 326.804C19.9718 326.589 19.4445 326.295 19.0338 325.922L19.6778 324.816C20.0138 325.133 20.4431 325.39 20.9658 325.586C21.4885 325.773 22.0438 325.866 22.6318 325.866C23.3598 325.866 23.9245 325.712 24.3258 325.404C24.7365 325.096 24.9418 324.671 24.9418 324.13C24.9418 323.589 24.7411 323.169 24.3398 322.87C23.9385 322.571 23.3318 322.422 22.5198 322.422H21.7358V321.442L24.1998 318.418H19.4818V317.2H25.9498V318.152L23.3878 321.316ZM31.6515 327.112C30.8769 327.112 30.1862 326.916 29.5795 326.524C28.9822 326.123 28.5109 325.544 28.1655 324.788C27.8202 324.032 27.6475 323.136 27.6475 322.1C27.6475 321.064 27.8202 320.168 28.1655 319.412C28.5109 318.656 28.9822 318.082 29.5795 317.69C30.1862 317.289 30.8769 317.088 31.6515 317.088C32.4169 317.088 33.0982 317.289 33.6955 317.69C34.3022 318.082 34.7782 318.656 35.1235 319.412C35.4689 320.168 35.6415 321.064 35.6415 322.1C35.6415 323.136 35.4689 324.032 35.1235 324.788C34.7782 325.544 34.3022 326.123 33.6955 326.524C33.0982 326.916 32.4169 327.112 31.6515 327.112ZM31.6515 325.866C32.4355 325.866 33.0609 325.544 33.5275 324.9C34.0035 324.256 34.2415 323.323 34.2415 322.1C34.2415 320.877 34.0035 319.944 33.5275 319.3C33.0609 318.656 32.4355 318.334 31.6515 318.334C30.8582 318.334 30.2235 318.656 29.7475 319.3C29.2809 319.944 29.0475 320.877 29.0475 322.1C29.0475 323.323 29.2809 324.256 29.7475 324.9C30.2235 325.544 30.8582 325.866 31.6515 325.866Z" fill="#C4C4C4"/>
<path d="M26.485 280.592H24.623V283H23.265V280.592H17.819V279.612L22.831 273.2H24.343L19.541 279.388H23.307V277.26H24.623V279.388H26.485V280.592ZM31.3283 283.112C30.5536 283.112 29.8629 282.916 29.2563 282.524C28.6589 282.123 28.1876 281.544 27.8423 280.788C27.4969 280.032 27.3243 279.136 27.3243 278.1C27.3243 277.064 27.4969 276.168 27.8423 275.412C28.1876 274.656 28.6589 274.082 29.2563 273.69C29.8629 273.289 30.5536 273.088 31.3283 273.088C32.0936 273.088 32.7749 273.289 33.3723 273.69C33.9789 274.082 34.4549 274.656 34.8003 275.412C35.1456 276.168 35.3183 277.064 35.3183 278.1C35.3183 279.136 35.1456 280.032 34.8003 280.788C34.4549 281.544 33.9789 282.123 33.3723 282.524C32.7749 282.916 32.0936 283.112 31.3283 283.112ZM31.3283 281.866C32.1123 281.866 32.7376 281.544 33.2043 280.9C33.6803 280.256 33.9183 279.323 33.9183 278.1C33.9183 276.877 33.6803 275.944 33.2043 275.3C32.7376 274.656 32.1123 274.334 31.3283 274.334C30.5349 274.334 29.9003 274.656 29.4243 275.3C28.9576 275.944 28.7243 276.877 28.7243 278.1C28.7243 279.323 28.9576 280.256 29.4243 280.9C29.9003 281.544 30.5349 281.866 31.3283 281.866Z" fill="#C4C4C4"/>
<path d="M21.4221 233.106C22.8221 233.106 23.8488 233.372 24.5021 233.904C25.1648 234.427 25.4961 235.145 25.4961 236.06C25.4961 236.639 25.3561 237.161 25.0761 237.628C24.8055 238.085 24.3901 238.449 23.8301 238.72C23.2795 238.981 22.5981 239.112 21.7861 239.112C21.0955 239.112 20.4281 239.009 19.7841 238.804C19.1401 238.589 18.6081 238.295 18.1881 237.922L18.8321 236.816C19.1681 237.133 19.5975 237.39 20.1201 237.586C20.6428 237.773 21.1935 237.866 21.7721 237.866C22.5095 237.866 23.0788 237.712 23.4801 237.404C23.8908 237.087 24.0961 236.657 24.0961 236.116C24.0961 235.528 23.8721 235.085 23.4241 234.786C22.9761 234.478 22.2108 234.324 21.1281 234.324H18.9021L19.4201 229.2H24.9501V230.418H20.5961L20.3301 233.106H21.4221ZM30.6652 239.112C29.8905 239.112 29.1999 238.916 28.5932 238.524C27.9959 238.123 27.5245 237.544 27.1792 236.788C26.8339 236.032 26.6612 235.136 26.6612 234.1C26.6612 233.064 26.8339 232.168 27.1792 231.412C27.5245 230.656 27.9959 230.082 28.5932 229.69C29.1999 229.289 29.8905 229.088 30.6652 229.088C31.4305 229.088 32.1119 229.289 32.7092 229.69C33.3159 230.082 33.7919 230.656 34.1372 231.412C34.4825 232.168 34.6552 233.064 34.6552 234.1C34.6552 235.136 34.4825 236.032 34.1372 236.788C33.7919 237.544 33.3159 238.123 32.7092 238.524C32.1119 238.916 31.4305 239.112 30.6652 239.112ZM30.6652 237.866C31.4492 237.866 32.0745 237.544 32.5412 236.9C33.0172 236.256 33.2552 235.323 33.2552 234.1C33.2552 232.877 33.0172 231.944 32.5412 231.3C32.0745 230.656 31.4492 230.334 30.6652 230.334C29.8719 230.334 29.2372 230.656 28.7612 231.3C28.2945 231.944 28.0612 232.877 28.0612 234.1C28.0612 235.323 28.2945 236.256 28.7612 236.9C29.2372 237.544 29.8719 237.866 30.6652 237.866Z" fill="#C4C4C4"/>
<path d="M22.5493 189.05C23.1933 189.05 23.7673 189.171 24.2713 189.414C24.7847 189.657 25.186 190.007 25.4753 190.464C25.7647 190.912 25.9093 191.43 25.9093 192.018C25.9093 192.634 25.7553 193.175 25.4473 193.642C25.1487 194.109 24.7333 194.473 24.2013 194.734C23.6787 194.986 23.0907 195.112 22.4373 195.112C21.1213 195.112 20.104 194.687 19.3853 193.838C18.676 192.989 18.3213 191.785 18.3213 190.226C18.3213 189.134 18.5127 188.205 18.8953 187.44C19.2873 186.665 19.8287 186.082 20.5193 185.69C21.2193 185.289 22.0313 185.088 22.9553 185.088C23.4313 185.088 23.8793 185.139 24.2993 185.242C24.7193 185.335 25.0833 185.475 25.3913 185.662L24.8593 186.754C24.3927 186.446 23.7673 186.292 22.9833 186.292C21.966 186.292 21.168 186.609 20.5893 187.244C20.0107 187.869 19.7213 188.784 19.7213 189.988C19.7213 190.137 19.726 190.254 19.7353 190.338C20.0153 189.918 20.398 189.601 20.8833 189.386C21.378 189.162 21.9333 189.05 22.5493 189.05ZM22.3813 193.978C23.0253 193.978 23.548 193.805 23.9493 193.46C24.3507 193.115 24.5513 192.653 24.5513 192.074C24.5513 191.495 24.346 191.038 23.9353 190.702C23.534 190.357 22.9927 190.184 22.3113 190.184C21.8727 190.184 21.4807 190.268 21.1353 190.436C20.7993 190.604 20.5333 190.833 20.3373 191.122C20.1507 191.411 20.0573 191.733 20.0573 192.088C20.0573 192.433 20.146 192.751 20.3233 193.04C20.51 193.32 20.776 193.549 21.1213 193.726C21.476 193.894 21.896 193.978 22.3813 193.978ZM30.966 195.112C30.1913 195.112 29.5006 194.916 28.894 194.524C28.2966 194.123 27.8253 193.544 27.48 192.788C27.1346 192.032 26.962 191.136 26.962 190.1C26.962 189.064 27.1346 188.168 27.48 187.412C27.8253 186.656 28.2966 186.082 28.894 185.69C29.5006 185.289 30.1913 185.088 30.966 185.088C31.7313 185.088 32.4126 185.289 33.01 185.69C33.6166 186.082 34.0926 186.656 34.438 187.412C34.7833 188.168 34.956 189.064 34.956 190.1C34.956 191.136 34.7833 192.032 34.438 192.788C34.0926 193.544 33.6166 194.123 33.01 194.524C32.4126 194.916 31.7313 195.112 30.966 195.112ZM30.966 193.866C31.75 193.866 32.3753 193.544 32.842 192.9C33.318 192.256 33.556 191.323 33.556 190.1C33.556 188.877 33.318 187.944 32.842 187.3C32.3753 186.656 31.75 186.334 30.966 186.334C30.1726 186.334 29.538 186.656 29.062 187.3C28.5953 187.944 28.362 188.877 28.362 190.1C28.362 191.323 28.5953 192.256 29.062 192.9C29.538 193.544 30.1726 193.866 30.966 193.866Z" fill="#C4C4C4"/>
<path d="M25.7348 141.2V142.152L21.7728 151H20.2888L24.1668 142.418H19.6868V144.168H18.3428V141.2H25.7348ZM30.6925 151.112C29.9179 151.112 29.2272 150.916 28.6205 150.524C28.0232 150.123 27.5519 149.544 27.2065 148.788C26.8612 148.032 26.6885 147.136 26.6885 146.1C26.6885 145.064 26.8612 144.168 27.2065 143.412C27.5519 142.656 28.0232 142.082 28.6205 141.69C29.2272 141.289 29.9179 141.088 30.6925 141.088C31.4579 141.088 32.1392 141.289 32.7365 141.69C33.3432 142.082 33.8192 142.656 34.1645 143.412C34.5099 144.168 34.6825 145.064 34.6825 146.1C34.6825 147.136 34.5099 148.032 34.1645 148.788C33.8192 149.544 33.3432 150.123 32.7365 150.524C32.1392 150.916 31.4579 151.112 30.6925 151.112ZM30.6925 149.866C31.4765 149.866 32.1019 149.544 32.5685 148.9C33.0445 148.256 33.2825 147.323 33.2825 146.1C33.2825 144.877 33.0445 143.944 32.5685 143.3C32.1019 142.656 31.4765 142.334 30.6925 142.334C29.8992 142.334 29.2645 142.656 28.7885 143.3C28.3219 143.944 28.0885 144.877 28.0885 146.1C28.0885 147.323 28.3219 148.256 28.7885 148.9C29.2645 149.544 29.8992 149.866 30.6925 149.866Z" fill="#C4C4C4"/>
<path d="M24.1288 101.862C24.6888 102.077 25.1181 102.385 25.4168 102.786C25.7154 103.187 25.8648 103.668 25.8648 104.228C25.8648 104.816 25.7061 105.329 25.3888 105.768C25.0714 106.197 24.6188 106.529 24.0308 106.762C23.4428 106.995 22.7521 107.112 21.9588 107.112C21.1748 107.112 20.4888 106.995 19.9008 106.762C19.3221 106.529 18.8741 106.197 18.5568 105.768C18.2394 105.329 18.0808 104.816 18.0808 104.228C18.0808 103.668 18.2254 103.187 18.5148 102.786C18.8134 102.385 19.2428 102.077 19.8028 101.862C19.3548 101.647 19.0141 101.363 18.7808 101.008C18.5474 100.653 18.4308 100.233 18.4308 99.748C18.4308 99.2067 18.5754 98.7353 18.8648 98.334C19.1634 97.9327 19.5788 97.6247 20.1108 97.41C20.6428 97.1953 21.2588 97.088 21.9588 97.088C22.6681 97.088 23.2888 97.1953 23.8208 97.41C24.3621 97.6247 24.7774 97.9327 25.0668 98.334C25.3654 98.7353 25.5148 99.2067 25.5148 99.748C25.5148 100.224 25.3934 100.644 25.1508 101.008C24.9174 101.363 24.5768 101.647 24.1288 101.862ZM21.9588 98.222C21.2961 98.222 20.7734 98.3667 20.3908 98.656C20.0081 98.936 19.8168 99.3187 19.8168 99.804C19.8168 100.289 20.0034 100.672 20.3768 100.952C20.7594 101.232 21.2868 101.372 21.9588 101.372C22.6401 101.372 23.1721 101.232 23.5548 100.952C23.9468 100.672 24.1428 100.289 24.1428 99.804C24.1428 99.3187 23.9421 98.936 23.5408 98.656C23.1488 98.3667 22.6214 98.222 21.9588 98.222ZM21.9588 105.978C22.7334 105.978 23.3448 105.819 23.7928 105.502C24.2408 105.175 24.4648 104.737 24.4648 104.186C24.4648 103.645 24.2408 103.22 23.7928 102.912C23.3448 102.595 22.7334 102.436 21.9588 102.436C21.1841 102.436 20.5774 102.595 20.1388 102.912C19.7001 103.22 19.4808 103.645 19.4808 104.186C19.4808 104.737 19.7001 105.175 20.1388 105.502C20.5774 105.819 21.1841 105.978 21.9588 105.978ZM31.1505 107.112C30.3759 107.112 29.6852 106.916 29.0785 106.524C28.4812 106.123 28.0099 105.544 27.6645 104.788C27.3192 104.032 27.1465 103.136 27.1465 102.1C27.1465 101.064 27.3192 100.168 27.6645 99.412C28.0099 98.656 28.4812 98.082 29.0785 97.69C29.6852 97.2887 30.3759 97.088 31.1505 97.088C31.9159 97.088 32.5972 97.2887 33.1945 97.69C33.8012 98.082 34.2772 98.656 34.6225 99.412C34.9679 100.168 35.1405 101.064 35.1405 102.1C35.1405 103.136 34.9679 104.032 34.6225 104.788C34.2772 105.544 33.8012 106.123 33.1945 106.524C32.5972 106.916 31.9159 107.112 31.1505 107.112ZM31.1505 105.866C31.9345 105.866 32.5599 105.544 33.0265 104.9C33.5025 104.256 33.7405 103.323 33.7405 102.1C33.7405 100.877 33.5025 99.944 33.0265 99.3C32.5599 98.656 31.9345 98.334 31.1505 98.334C30.3572 98.334 29.7225 98.656 29.2465 99.3C28.7799 99.944 28.5465 100.877 28.5465 102.1C28.5465 103.323 28.7799 104.256 29.2465 104.9C29.7225 105.544 30.3572 105.866 31.1505 105.866Z" fill="#C4C4C4"/>
<path d="M21.4993 53.088C22.8153 53.088 23.828 53.5127 24.5373 54.362C25.256 55.2113 25.6153 56.4153 25.6153 57.974C25.6153 59.066 25.4193 59.9993 25.0273 60.774C24.6447 61.5393 24.1033 62.1227 23.4033 62.524C22.7127 62.916 21.9053 63.112 20.9813 63.112C20.5053 63.112 20.0573 63.0653 19.6373 62.972C19.2173 62.8693 18.8533 62.7247 18.5453 62.538L19.0773 61.446C19.5533 61.754 20.1833 61.908 20.9673 61.908C21.9847 61.908 22.778 61.5953 23.3473 60.97C23.926 60.3353 24.2153 59.416 24.2153 58.212V57.862C23.9353 58.282 23.548 58.604 23.0533 58.828C22.5587 59.0427 22.0033 59.15 21.3873 59.15C20.7433 59.15 20.1647 59.0287 19.6513 58.786C19.1473 58.5433 18.7507 58.198 18.4613 57.75C18.1813 57.2927 18.0413 56.77 18.0413 56.182C18.0413 55.566 18.1907 55.0247 18.4893 54.558C18.7973 54.0913 19.2127 53.732 19.7353 53.48C20.258 53.2187 20.846 53.088 21.4993 53.088ZM21.6253 58.016C22.064 58.016 22.456 57.932 22.8013 57.764C23.1467 57.596 23.4127 57.3673 23.5993 57.078C23.7953 56.7887 23.8933 56.4667 23.8933 56.112C23.8933 55.7667 23.8 55.454 23.6133 55.174C23.436 54.8847 23.17 54.656 22.8153 54.488C22.47 54.3107 22.05 54.222 21.5553 54.222C20.9113 54.222 20.3887 54.3947 19.9873 54.74C19.5953 55.0853 19.3993 55.5473 19.3993 56.126C19.3993 56.7047 19.6 57.1667 20.0013 57.512C20.4027 57.848 20.944 58.016 21.6253 58.016ZM30.966 63.112C30.1913 63.112 29.5006 62.916 28.894 62.524C28.2966 62.1227 27.8253 61.544 27.48 60.788C27.1346 60.032 26.962 59.136 26.962 58.1C26.962 57.064 27.1346 56.168 27.48 55.412C27.8253 54.656 28.2966 54.082 28.894 53.69C29.5006 53.2887 30.1913 53.088 30.966 53.088C31.7313 53.088 32.4126 53.2887 33.01 53.69C33.6166 54.082 34.0926 54.656 34.438 55.412C34.7833 56.168 34.956 57.064 34.956 58.1C34.956 59.136 34.7833 60.032 34.438 60.788C34.0926 61.544 33.6166 62.1227 33.01 62.524C32.4126 62.916 31.7313 63.112 30.966 63.112ZM30.966 61.866C31.75 61.866 32.3753 61.544 32.842 60.9C33.318 60.256 33.556 59.3227 33.556 58.1C33.556 56.8773 33.318 55.944 32.842 55.3C32.3753 54.656 31.75 54.334 30.966 54.334C30.1726 54.334 29.538 54.656 29.062 55.3C28.5953 55.944 28.362 56.8773 28.362 58.1C28.362 59.3227 28.5953 60.256 29.062 60.9C29.538 61.544 30.1726 61.866 30.966 61.866Z" fill="#C4C4C4"/>
<path d="M18.7813 9.2V19H17.3953V10.418H15.1833V9.2H18.7813ZM24.9289 19.112C24.1543 19.112 23.4636 18.916 22.8569 18.524C22.2596 18.1227 21.7883 17.544 21.4429 16.788C21.0976 16.032 20.9249 15.136 20.9249 14.1C20.9249 13.064 21.0976 12.168 21.4429 11.412C21.7883 10.656 22.2596 10.082 22.8569 9.69C23.4636 9.28867 24.1543 9.088 24.9289 9.088C25.6943 9.088 26.3756 9.28867 26.9729 9.69C27.5796 10.082 28.0556 10.656 28.4009 11.412C28.7463 12.168 28.9189 13.064 28.9189 14.1C28.9189 15.136 28.7463 16.032 28.4009 16.788C28.0556 17.544 27.5796 18.1227 26.9729 18.524C26.3756 18.916 25.6943 19.112 24.9289 19.112ZM24.9289 17.866C25.7129 17.866 26.3383 17.544 26.8049 16.9C27.2809 16.256 27.5189 15.3227 27.5189 14.1C27.5189 12.8773 27.2809 11.944 26.8049 11.3C26.3383 10.656 25.7129 10.334 24.9289 10.334C24.1356 10.334 23.5009 10.656 23.0249 11.3C22.5583 11.944 22.3249 12.8773 22.3249 14.1C22.3249 15.3227 22.5583 16.256 23.0249 16.9C23.5009 17.544 24.1356 17.866 24.9289 17.866ZM34.2668 19.112C33.4922 19.112 32.8015 18.916 32.1948 18.524C31.5975 18.1227 31.1262 17.544 30.7808 16.788C30.4355 16.032 30.2628 15.136 30.2628 14.1C30.2628 13.064 30.4355 12.168 30.7808 11.412C31.1262 10.656 31.5975 10.082 32.1948 9.69C32.8015 9.28867 33.4922 9.088 34.2668 9.088C35.0322 9.088 35.7135 9.28867 36.3108 9.69C36.9175 10.082 37.3935 10.656 37.7388 11.412C38.0842 12.168 38.2568 13.064 38.2568 14.1C38.2568 15.136 38.0842 16.032 37.7388 16.788C37.3935 17.544 36.9175 18.1227 36.3108 18.524C35.7135 18.916 35.0322 19.112 34.2668 19.112ZM34.2668 17.866C35.0508 17.866 35.6762 17.544 36.1428 16.9C36.6188 16.256 36.8568 15.3227 36.8568 14.1C36.8568 12.8773 36.6188 11.944 36.1428 11.3C35.6762 10.656 35.0508 10.334 34.2668 10.334C33.4735 10.334 32.8388 10.656 32.3628 11.3C31.8962 11.944 31.6628 12.8773 31.6628 14.1C31.6628 15.3227 31.8962 16.256 32.3628 16.9C32.8388 17.544 33.4735 17.866 34.2668 17.866Z" fill="#C4C4C4"/>
</svg>
