<svg width="41" height="29" viewBox="0 0 41 29" fill="none" xmlns="http://www.w3.org/2000/svg">
<path d="M40.3359 18.4406H38.504C38.4921 18.4406 38.481 18.436 38.4727 18.4276L37.4707 17.4257C37.2114 17.1665 36.8669 17.0237 36.5003 17.0237H34.6242V16.9794C34.6242 16.2226 34.0085 15.6069 33.2516 15.6069H31.8348C31.0779 15.6069 30.4622 16.2226 30.4622 16.9794V17.0237H28.586C28.2194 17.0237 27.8749 17.1665 27.6155 17.4257L26.6138 18.4275C26.6054 18.436 26.5942 18.4405 26.5824 18.4405H23.9978V15.8559C23.9978 15.8443 24.0025 15.8329 24.0109 15.8245L25.0126 14.8227C25.2719 14.5635 25.4147 14.2189 25.4147 13.8522V11.9762H25.459C26.2158 11.9762 26.8315 11.3605 26.8315 10.6036V9.18678C26.8315 8.42992 26.2158 7.81421 25.459 7.81421H22.581V7.01724H28.2927C28.904 7.01724 29.482 6.7499 29.8784 6.28393C30.2746 5.81814 30.4448 5.20128 30.3457 4.59168C30.1846 3.60175 29.2694 2.85525 28.2169 2.85525H23.104L22.8699 2.15285C22.5861 1.30177 21.7927 0.72998 20.8957 0.72998H20.1043C19.2073 0.72998 18.4139 1.30177 18.1301 2.15285L17.896 2.85525H12.7831C11.7306 2.85525 10.8154 3.60175 10.6543 4.5916C10.5552 5.20128 10.7254 5.81814 11.1216 6.28384C11.518 6.7499 12.0959 7.01715 12.7073 7.01715H18.419V7.81412H15.541C14.7842 7.81412 14.1685 8.42983 14.1685 9.1867V10.6035C14.1685 11.3604 14.7842 11.9761 15.541 11.9761H15.5853V13.8523C15.5853 14.219 15.7281 14.5636 15.9873 14.8227L16.9893 15.8247C16.9975 15.8329 17.0022 15.8444 17.0022 15.856V18.4406H14.4177C14.4058 18.4406 14.3947 18.436 14.3864 18.4276L13.3844 17.4257C13.1251 17.1665 12.7806 17.0237 12.414 17.0237H10.5378V16.9794C10.5378 16.2226 9.92209 15.6069 9.16523 15.6069H7.74838C6.99152 15.6069 6.37581 16.2226 6.37581 16.9794V17.0237H4.49964C4.13303 17.0237 3.78847 17.1665 3.5291 17.4257L2.52739 18.4275C2.51898 18.436 2.50782 18.4406 2.49604 18.4406H0.664147C0.297361 18.4406 0 18.7378 0 19.1047V24.7721C0 25.139 0.297361 25.4362 0.664147 25.4362H2.49604C2.50791 25.4362 2.51898 25.4408 2.5273 25.4492L3.52928 26.4511C3.78856 26.7103 4.13312 26.8531 4.49973 26.8531H6.37581V26.8974C6.37581 27.6542 6.99152 28.2699 7.74838 28.2699H9.16523C9.92209 28.2699 10.5378 27.6542 10.5378 26.8974V26.8531H12.414C12.7806 26.8531 13.1251 26.7103 13.3845 26.4511L14.3862 25.4493C14.3946 25.4408 14.4058 25.4363 14.4176 25.4363H26.5823C26.5942 25.4363 26.6054 25.4409 26.6136 25.4493L27.6156 26.4512C27.8749 26.7104 28.2194 26.8532 28.586 26.8532H30.4622V26.8975C30.4622 27.6543 31.0779 28.27 31.8348 28.27H33.2516C34.0085 28.27 34.6242 27.6543 34.6242 26.8975V26.8531H36.5004C36.867 26.8531 37.2115 26.7103 37.4709 26.4511L38.4726 25.4493C38.481 25.4408 38.4922 25.4363 38.504 25.4363H40.3359C40.7026 25.4363 41 25.1391 41 24.7722V19.1048C41 18.7378 40.7026 18.4406 40.3359 18.4406ZM36.5004 18.352C36.5122 18.352 36.5233 18.3566 36.5316 18.3649L37.5336 19.3669C37.7929 19.6261 38.1374 19.7689 38.504 19.7689H39.6717V21.9827H34.6242V18.352H36.5004ZM12.1335 5.42337C11.988 5.25229 11.9283 5.03277 11.9654 4.80492C12.0221 4.45646 12.3813 4.18354 12.7831 4.18354H18.3747C18.6607 4.18354 18.9144 4.00068 19.0048 3.72944L19.3903 2.57294C19.4929 2.26504 19.7799 2.05819 20.1043 2.05819H20.8957C21.2202 2.05819 21.5071 2.26504 21.6097 2.57294L21.9952 3.72944C22.0856 4.00068 22.3394 4.18354 22.6253 4.18354H28.2169C28.6187 4.18354 28.9779 4.45646 29.0346 4.80492C29.0717 5.03277 29.012 5.25238 28.8665 5.42337C28.7229 5.59216 28.5139 5.68894 28.2927 5.68894H12.7073C12.4861 5.68894 12.2771 5.59216 12.1335 5.42337ZM19.7473 7.01724H21.2527V7.81421H19.7473V7.01724ZM15.4968 10.6036V9.18678C15.4968 9.16243 15.5166 9.14251 15.541 9.14251H25.459C25.4834 9.14251 25.5032 9.16243 25.5032 9.18678V10.6036C25.5032 10.628 25.4834 10.6479 25.459 10.6479H15.541C15.5166 10.6479 15.4968 10.628 15.4968 10.6036ZM12.414 18.352C12.4258 18.352 12.4369 18.3566 12.4452 18.3649L13.4472 19.3669C13.7065 19.6261 14.051 19.7689 14.4177 19.7689H17.6663C18.0331 19.7689 18.3305 19.4716 18.3305 19.1047V15.856C18.3305 15.4893 18.1876 15.1446 17.9284 14.8855L16.9264 13.8835C16.9183 13.8753 16.9135 13.8639 16.9135 13.8523V11.9762H24.0863V13.8524C24.0863 13.864 24.0816 13.8754 24.0733 13.8837L23.0716 14.8855C22.8123 15.1447 22.6695 15.4894 22.6695 15.8561V19.1047C22.6695 19.4716 22.9668 19.7689 23.3336 19.7689H26.5823C26.949 19.7689 27.2935 19.6261 27.5529 19.3668L28.5546 18.365C28.563 18.3566 28.5742 18.3521 28.5859 18.3521H30.4622V21.9828H10.5378V18.3521L12.414 18.352ZM2.49604 19.7689C2.86265 19.7689 3.20721 19.6261 3.46658 19.3668L4.46829 18.365C4.4767 18.3566 4.48786 18.3521 4.49964 18.3521H6.37581V21.9828H1.32829V19.7689L2.49604 19.7689ZM4.49964 25.5248C4.48777 25.5248 4.4767 25.5202 4.46838 25.5119L3.4664 24.5099C3.20721 24.2507 2.86256 24.108 2.49604 24.108H1.32829V23.311H6.37581V25.5248H4.49964ZM9.2095 26.8974C9.2095 26.9217 9.18967 26.9416 9.16523 26.9416H7.74838C7.72394 26.9416 7.7041 26.9217 7.7041 26.8974V16.9794C7.7041 16.9551 7.72394 16.9352 7.74838 16.9352H9.16523C9.18967 16.9352 9.2095 16.9551 9.2095 16.9794V26.8974ZM28.586 25.5248C28.5742 25.5248 28.563 25.5202 28.5548 25.5119L27.5528 24.5099C27.2935 24.2507 26.949 24.108 26.5823 24.108H14.4176C14.051 24.108 13.7064 24.2507 13.447 24.51L12.4453 25.5118C12.4369 25.5202 12.4257 25.5247 12.414 25.5247H10.5378V23.3109H30.4622V25.5247L28.586 25.5248ZM33.2959 26.8974C33.2959 26.9217 33.2761 26.9416 33.2516 26.9416H31.8348C31.8103 26.9416 31.7905 26.9217 31.7905 26.8974V16.9794C31.7905 16.9551 31.8103 16.9352 31.8348 16.9352H33.2516C33.2761 16.9352 33.2959 16.9551 33.2959 16.9794V26.8974ZM38.504 24.108C38.1373 24.108 37.7928 24.2507 37.5334 24.51L36.5317 25.5118C36.5233 25.5202 36.5121 25.5247 36.5004 25.5247H34.6242V23.3109H39.6717V24.1079L38.504 24.108Z" fill="#C4C4C4"/>
</svg>
