<svg width="52" height="31" viewBox="0 0 52 31" fill="none" xmlns="http://www.w3.org/2000/svg">
<path d="M3.78013 29.775C0.527174 25.5213 1.0277 23.5195 1.02774 22.0182C1.52805 18.0148 4.43866 14.7252 5.28081 12.7602C6.03148 11.0087 7.03282 8.75673 6.03129 4.75326C5.4192 3.18748 3.77951 1 3.77951 1" stroke="#C4C4C4" stroke-width="2" stroke-linecap="round" stroke-linejoin="round"/>
<path d="M15.3179 29.775C12.065 25.5213 12.5655 23.5195 12.5655 22.0182C13.0658 18.0148 15.9764 14.7252 16.8186 12.7602C17.5693 11.0087 18.5706 8.75673 17.5691 4.75326C16.957 3.18748 15.3173 1 15.3173 1" stroke="#C4C4C4" stroke-width="2" stroke-linecap="round" stroke-linejoin="round"/>
<path d="M26.3275 29.775C23.0745 25.5213 23.5751 23.5195 23.5751 22.0182C24.0754 18.0148 26.986 14.7252 27.8282 12.7602C28.5788 11.0087 29.5802 8.75673 28.5787 4.75326C27.9666 3.18748 26.3269 1 26.3269 1" stroke="#C4C4C4" stroke-width="2" stroke-linecap="round" stroke-linejoin="round"/>
<path d="M46.2396 21.36V24H33.8556V21.912L40.5276 15.576C41.2796 14.856 41.7836 14.232 42.0396 13.704C42.3116 13.16 42.4476 12.624 42.4476 12.096C42.4476 11.312 42.1836 10.712 41.6556 10.296C41.1276 9.88 40.3516 9.672 39.3276 9.672C37.6156 9.672 36.3036 10.256 35.3916 11.424L33.2076 9.744C33.8636 8.864 34.7436 8.184 35.8476 7.704C36.9676 7.208 38.2156 6.96 39.5916 6.96C41.4156 6.96 42.8716 7.392 43.9596 8.256C45.0476 9.12 45.5916 10.296 45.5916 11.784C45.5916 12.696 45.3996 13.552 45.0156 14.352C44.6316 15.152 43.8956 16.064 42.8076 17.088L38.3196 21.36H46.2396Z" fill="#C4C4C4"/>
</svg>
