<svg width="52" height="31" viewBox="0 0 52 31" fill="none" xmlns="http://www.w3.org/2000/svg">
<path d="M3.78013 29.775C0.527174 25.5213 1.0277 23.5195 1.02774 22.0182C1.52805 18.0148 4.43866 14.7252 5.28081 12.7602C6.03148 11.0087 7.03282 8.75673 6.03129 4.75326C5.4192 3.18748 3.77951 1 3.77951 1" stroke="#C4C4C4" stroke-width="2" stroke-linecap="round" stroke-linejoin="round"/>
<path d="M15.3179 29.775C12.065 25.5213 12.5655 23.5195 12.5655 22.0182C13.0658 18.0148 15.9764 14.7252 16.8186 12.7602C17.5693 11.0087 18.5706 8.75673 17.5691 4.75326C16.957 3.18748 15.3173 1 15.3173 1" stroke="#C4C4C4" stroke-width="2" stroke-linecap="round" stroke-linejoin="round"/>
<path d="M26.3275 29.775C23.0745 25.5213 23.5751 23.5195 23.5751 22.0182C24.0754 18.0148 26.986 14.7252 27.8282 12.7602C28.5788 11.0087 29.5802 8.75673 28.5787 4.75326C27.9666 3.18748 26.3269 1 26.3269 1" stroke="#C4C4C4" stroke-width="2" stroke-linecap="round" stroke-linejoin="round"/>
<path d="M42.2937 7.2V24H39.1737V9.816H35.6217V7.2H42.2937Z" fill="#C4C4C4"/>
</svg>
