<svg width="60" height="41" viewBox="0 0 60 41" fill="none" xmlns="http://www.w3.org/2000/svg">
<rect x="11.5" y="1" width="39" height="39" rx="4" stroke="#C4C4C4" stroke-width="2"/>
<circle cx="31" cy="20.5" r="14.5" stroke="#C4C4C4" stroke-width="2" stroke-linecap="round"/>
<path fill-rule="evenodd" clip-rule="evenodd" d="M31 25C33.7614 25 36 22.7614 36 20C36 17.2386 33.7614 15 31 15C28.2386 15 26 17.2386 26 20C26 22.7614 28.2386 25 31 25ZM34 20C34 21.6569 32.6569 23 31 23C29.3431 23 28 21.6569 28 20C28 18.3431 29.3431 17 31 17C32.6569 17 34 18.3431 34 20ZM35 20C35 22.2091 33.2091 24 31 24C28.7909 24 27 22.2091 27 20C27 17.7909 28.7909 16 31 16C33.2091 16 35 17.7909 35 20Z" fill="#C4C4C4"/>
<path d="M27.5 17C26.2327 14.0985 24.5358 11.4958 21.5 10.5M31 15.5C32.3571 13.0996 33.4585 10.409 32 6.5M34.5 17C37.7759 15.6318 40.4839 14.3087 41 10.5M35.5 20C38.0039 20.8754 41.2252 22.3147 45 21M34 23.5C35.1449 26.251 37.1131 29.3764 40.5 31M30.5 24.5C29.6655 27.3205 29.4532 31.1266 30.5 34.5M27.5 23.5C24.7958 24.8936 22.4044 26.9398 21.5 30.5M26.5 20C24.1747 19.1772 20.9433 18.7609 17 20" stroke="#C4C4C4" stroke-linecap="round" stroke-linejoin="round"/>
<path d="M3.74324 11H11.5M1 17.5H10.4054M1.39189 23.5H5.7027M8.83784 23.5H11.5M4.91892 30H10.4054M49 29H54.6892M42.1486 16.5H52.3378M45.5 10H55.473M55.8649 22.5H59M55.8649 16.5H57.0405M48 22.5H52.3378" stroke="#C4C4C4" stroke-linecap="round" stroke-linejoin="round"/>
</svg>
