<svg width="52" height="41" viewBox="0 0 52 41" fill="none" xmlns="http://www.w3.org/2000/svg">
<rect x="32.0312" width="1.46428" height="8.7857" fill="white"/>
<rect x="51.2499" y="17.5721" width="1.46428" height="8.7857" transform="rotate(90 51.2499 17.5721)" fill="white"/>
<rect x="45.7484" y="4.39233" width="1.46428" height="8.7857" transform="rotate(45 45.7484 4.39233)" fill="white"/>
<rect x="19.0355" y="5.42822" width="1.46428" height="8.7857" transform="rotate(-45 19.0355 5.42822)" fill="white"/>
<rect x="41.0003" y="24.4639" width="1.46428" height="8.7857" transform="rotate(-45 41.0003 24.4639)" fill="white"/>
<path fill-rule="evenodd" clip-rule="evenodd" d="M21.1842 32.2155H9.66968V33.6798H21.3839V33.674C23.3128 33.5702 24.8448 31.9733 24.8448 30.0186C24.8448 27.9968 23.2059 26.3579 21.1842 26.3578V27.8778C22.3665 27.8779 23.3248 28.8363 23.3248 30.0186C23.3248 31.2008 22.3665 32.1592 21.1842 32.1594V32.2155Z" fill="white"/>
<path fill-rule="evenodd" clip-rule="evenodd" d="M18.4555 35.1427H9.6698V36.607H18.4548V36.6629C19.2325 36.6632 19.8628 37.2937 19.8628 38.0714C19.8628 38.8492 19.2325 39.4797 18.4548 39.48V40.9992H18.3839C18.4073 40.9997 18.4307 41 18.4542 41C20.0717 41 21.3828 39.6888 21.3828 38.0714C21.3828 36.4544 20.0723 35.1435 18.4555 35.1429V35.1427Z" fill="white"/>
<path fill-rule="evenodd" clip-rule="evenodd" d="M40.9993 27.0897C40.9993 25.469 40.5206 23.9601 39.6968 22.6968C40.5204 21.4335 40.999 19.9248 40.999 18.3043C40.999 13.8564 37.3933 10.2507 32.9454 10.2507C30.2542 10.2507 27.8713 11.5708 26.4089 13.5987C25.0091 12.423 23.2035 11.715 21.2324 11.715C17.0315 11.715 13.5817 14.9315 13.2117 19.0361H8.84223H8.05356H7.32223V19.0689C3.21709 19.4384 0 22.8883 0 27.0897C0 31.291 3.21709 34.741 7.32223 35.1105V35.1439H8.84223H32.1593H33.6793V35.1103C37.7834 34.7397 40.9993 31.2902 40.9993 27.0897ZM39.179 18.3043C39.179 19.3567 38.9182 20.3483 38.4576 21.2178C37.184 20.0218 35.5211 19.2354 33.6793 19.0691V19.0361H32.9457H32.1593H29.2531C29.1159 17.5132 28.5546 16.1126 27.6884 14.9531C28.7955 13.2199 30.7363 12.0707 32.9454 12.0707C36.3881 12.0707 39.179 14.8616 39.179 18.3043ZM27.864 20.5561L27.7393 19.1726C27.4392 15.8443 24.6397 13.235 21.2324 13.235C17.8252 13.235 15.0256 15.8443 14.7256 19.1726L14.6009 20.5561H13.2117H8.05356H7.75443L7.4585 20.5828C4.12976 20.8824 1.52 23.6821 1.52 27.0897C1.52 30.4972 4.12976 33.297 7.4585 33.5966L7.7621 33.6239H33.2381L33.5426 33.5964C36.8705 33.2959 39.4793 30.4966 39.4793 27.0897C39.4793 23.6828 36.8705 20.8834 33.5426 20.5829L33.2458 20.5561H32.9457H29.2531H27.864ZM23.4288 33.6792H8.78592V35.1434H23.4288V33.6792Z" fill="white"/>
</svg>
