<svg width="58" height="52" viewBox="0 0 58 52" fill="none" xmlns="http://www.w3.org/2000/svg">
<mask id="mask0" mask-type="alpha" maskUnits="userSpaceOnUse" x="0" y="0" width="58" height="52">
<path d="M1 43.8736C1 43.8736 3.29506 43.8736 5.01635 43.8736C6.9289 43.8736 6.73764 42.418 6.73764 42.418C6.73764 42.418 6.73764 21.6723 6.73764 11.1174C6.73764 9.47981 8.65019 7.66001 9.79772 7.65977C10.9452 7.65954 14.5791 7.65977 14.5791 7.65977" stroke="black" stroke-linecap="round" stroke-linejoin="round"/>
<path d="M15.3428 10.5717C15.3428 10.5717 13.0478 10.5717 11.3265 10.5717C9.41394 10.5717 9.6052 12.0273 9.6052 12.0273C9.6052 12.0273 9.60519 32.7731 9.60519 43.3279C9.60519 45.1477 8.07515 46.7852 6.54512 46.7855C5.39759 46.7858 1.76375 46.7855 1.76375 46.7855" stroke="black" stroke-linecap="round" stroke-linejoin="round"/>
<path d="M33.0435 17.8512H19.8472M32.8522 33.3194C32.8522 33.3194 25.6031 33.3181 19.8472 33.319M19.8472 33.319C19.1158 33.3191 18.4084 33.3192 17.7431 33.3194C16.7872 33.3197 15.2573 34.5097 15.2572 35.8674C15.2571 37.6872 15.2572 38.4151 15.2571 40.5988C15.2571 42.7826 17.5526 42.9646 18.891 42.9646C19.4647 42.9646 19.6557 43.3717 19.6557 43.8742C19.6557 44.4204 19.6557 44.7843 19.6557 45.512C19.6557 46.2396 19.2275 46.4217 18.6994 46.4219C17.9343 46.4222 17.1693 46.4222 16.4043 46.4219C15.6394 46.4216 15.4481 46.8293 15.4481 47.3318C15.448 48.2419 15.448 48.9699 15.4481 49.8795C15.4481 50.5151 16.0218 50.6077 16.9781 50.6074C25.202 50.6052 33.426 50.6074 40.3112 50.6074C40.9449 50.6074 41.4587 50.1186 41.4587 49.5155C41.4587 48.9699 41.4592 47.8783 41.459 47.3321C41.4587 46.0579 40.6937 46.0579 39.5462 46.0579C38.7811 46.0579 38.2074 46.0582 37.6336 46.0579C37.2111 46.0577 36.8686 45.732 36.8686 45.33C36.8686 44.6024 36.8686 44.0564 36.8686 43.3282C36.8686 42.9262 37.2111 42.6002 37.6336 42.6003C38.3986 42.6006 38.7811 42.6003 39.5462 42.6003C40.5024 42.6003 41.3629 41.7814 41.4587 40.7805C41.5843 39.4687 41.5452 38.5478 41.5034 37.5052M19.8472 33.319V17.8512M19.8472 17.8512H15.6393V13.8476C15.6393 13.8476 16.7868 13.8476 17.7431 13.8476C18.7911 13.8476 18.6994 12.9377 18.6994 12.9377C18.6994 12.9377 18.6994 9.66211 18.6994 8.0243C19.2735 7.47863 20.8035 6.02253 21.5682 5.47659C21.5682 4.74867 21.5682 4.74867 21.5682 4.02076C21.5682 2.64436 24.0545 1.65503 24.0545 1.65503C24.0545 1.65503 29.9834 1.65533 32.4697 1.65503C33.8429 1.65486 34.956 3.29311 34.956 4.02076C34.956 4.56696 34.956 4.93119 34.956 5.65884C35.7214 6.20477 37.0602 7.29665 37.8249 8.02456C37.8249 9.84462 37.8249 11.4822 37.8249 12.938C37.8249 13.493 38.4942 13.8476 38.9724 13.8476C39.9287 13.8476 41.0762 13.8476 41.0762 13.8476V17.8512C41.0762 17.8512 38.7811 17.8512 37.6336 17.8512C37.2111 17.8512 36.8686 18.1771 36.8686 18.5791C36.8686 22.5829 36.8686 28.4062 36.8686 32.0455C36.8686 33.1377 37.2514 33.3197 38.0165 33.3197C38.7815 33.3197 38.9724 33.3194 39.5462 33.3194C39.929 33.3194 41.4587 34.2296 41.4587 35.6854C41.4587 36.3753 41.4815 36.957 41.5034 37.5052M41.5034 37.5052H45.8579M53.1256 37.5052H45.8579M45.8579 37.5052V33.8656M41.4587 41.6904C41.4587 41.6904 43.7541 41.6904 44.9016 41.6904C45.4298 41.6904 45.8579 42.0978 45.8579 42.6003C45.8579 43.3285 45.8579 44.0564 45.8579 44.7843C45.8579 45.5123 46.4668 45.5123 47.0054 45.5123C49.8742 45.5123 52.7431 45.5123 55.2294 45.5123C55.9688 45.5123 56.5682 44.9419 56.5682 44.2384C56.5682 40.0529 56.5682 33.8656 56.5682 30.9539C56.5682 30.3509 56.0544 29.8621 55.4206 29.8621C52.7431 29.8621 49.8742 29.8621 47.0054 29.8621C46.3717 29.8621 45.8579 30.3509 45.8579 30.9539C45.8579 32.0458 45.8579 33.8656 45.8579 33.8656M45.8579 33.8656H53.1256" stroke="black" stroke-width="2" stroke-linecap="round" stroke-linejoin="round"/>
<path d="M33.0435 17.8512H19.8472M32.8522 33.3194C32.8522 33.3194 25.6031 33.3181 19.8472 33.319M24.6283 6.02253H31.7047M19.8472 33.319C19.1158 33.3191 18.4084 33.3192 17.7431 33.3194C16.7872 33.3197 15.2573 34.5097 15.2572 35.8674C15.2571 37.6872 15.2572 38.4151 15.2571 40.5988C15.2571 42.7826 17.5526 42.9646 18.891 42.9646C19.4647 42.9646 19.6557 43.3717 19.6557 43.8742C19.6557 44.4204 19.6557 44.7843 19.6557 45.512C19.6557 46.2396 19.2275 46.4217 18.6994 46.4219C17.9343 46.4222 17.1693 46.4222 16.4043 46.4219C15.6394 46.4216 15.4481 46.8293 15.4481 47.3318C15.448 48.2419 15.448 48.9699 15.4481 49.8795C15.4481 50.5151 16.0218 50.6077 16.9781 50.6074C25.202 50.6052 33.426 50.6074 40.3112 50.6074C40.9449 50.6074 41.4587 50.1186 41.4587 49.5155C41.4587 48.9699 41.4592 47.8783 41.459 47.3321C41.4587 46.0579 40.6937 46.0579 39.5462 46.0579C38.7811 46.0579 38.2074 46.0582 37.6336 46.0579C37.2111 46.0577 36.8686 45.732 36.8686 45.33C36.8686 44.6024 36.8686 44.0564 36.8686 43.3282C36.8686 42.9262 37.2111 42.6002 37.6336 42.6003C38.3986 42.6006 38.7811 42.6003 39.5462 42.6003C40.5024 42.6003 41.3629 41.7814 41.4587 40.7805C41.5843 39.4687 41.5452 38.5478 41.5034 37.5052M19.8472 33.319V17.8512M19.8472 17.8512H15.6393V13.8476C15.6393 13.8476 16.7868 13.8476 17.7431 13.8476C18.7911 13.8476 18.6994 12.9377 18.6994 12.9377C18.6994 12.9377 18.6994 9.66211 18.6994 8.0243C19.2735 7.47863 20.8035 6.02253 21.5682 5.47659C21.5682 4.74867 21.5682 4.74867 21.5682 4.02076C21.5682 2.64436 24.0545 1.65503 24.0545 1.65503C24.0545 1.65503 29.9834 1.65533 32.4697 1.65503C33.8429 1.65486 34.956 3.29311 34.956 4.02076C34.956 4.56696 34.956 4.93119 34.956 5.65884C35.7214 6.20477 37.0602 7.29665 37.8249 8.02456C37.8249 9.84462 37.8249 11.4822 37.8249 12.938C37.8249 13.493 38.4942 13.8476 38.9724 13.8476C39.9287 13.8476 41.0762 13.8476 41.0762 13.8476V17.8512C41.0762 17.8512 38.7811 17.8512 37.6336 17.8512C37.2111 17.8512 36.8686 18.1771 36.8686 18.5791C36.8686 22.5829 36.8686 28.4062 36.8686 32.0455C36.8686 33.1377 37.2514 33.3197 38.0165 33.3197C38.7815 33.3197 38.9724 33.3194 39.5462 33.3194C39.929 33.3194 41.4587 34.2296 41.4587 35.6854C41.4587 36.3753 41.4815 36.957 41.5034 37.5052M24.0548 42.6003V46.4219M28.4537 42.6003V46.4219M32.8522 42.6003V46.4219M41.5034 37.5052H45.8579M53.1256 37.5052H45.8579M45.8579 37.5052V33.8656M41.4587 41.6904C41.4587 41.6904 43.7541 41.6904 44.9016 41.6904C45.4298 41.6904 45.8579 42.0978 45.8579 42.6003C45.8579 43.3285 45.8579 44.0564 45.8579 44.7843C45.8579 45.5123 46.4668 45.5123 47.0054 45.5123C49.8742 45.5123 52.7431 45.5123 55.2294 45.5123C55.9688 45.5123 56.5682 44.9419 56.5682 44.2384C56.5682 40.0529 56.5682 33.8656 56.5682 30.9539C56.5682 30.3509 56.0544 29.8621 55.4206 29.8621C52.7431 29.8621 49.8742 29.8621 47.0054 29.8621C46.3717 29.8621 45.8579 30.3509 45.8579 30.9539C45.8579 32.0458 45.8579 33.8656 45.8579 33.8656M45.8579 33.8656H53.1256" stroke="black" stroke-linecap="round" stroke-linejoin="round"/>
</mask>
<g mask="url(#mask0)">
<rect x="-8.26141" y="-14.8838" width="85.9974" height="81.3668" fill="#C4C4C4"/>
</g>
</svg>
