<svg width="42" height="42" viewBox="0 0 42 42" fill="none" xmlns="http://www.w3.org/2000/svg">
<path d="M35.8492 6.1507C31.8828 2.18441 26.6093 0 21 0C15.3906 0 10.117 2.18441 6.1507 6.1507C2.18433 10.1171 0 15.3907 0 21C0 26.6093 2.18433 31.8828 6.1507 35.8492C10.1171 39.8156 15.3906 42 21 42C26.6093 42 31.8828 39.8156 35.8492 35.8492C39.8156 31.8828 42 26.6093 42 21C42 15.3907 39.8156 10.1172 35.8492 6.1507ZM21 39.5391C10.7775 39.5391 2.46094 31.2225 2.46094 21C2.46094 10.7775 10.7775 2.46094 21 2.46094C31.2225 2.46094 39.5391 10.7775 39.5391 21C39.5391 31.2225 31.2225 39.5391 21 39.5391Z" fill="#EC4C69"/>
<path d="M31.033 14.2619C30.5526 13.7815 29.7734 13.7815 29.293 14.262L18.4272 25.1277L12.7074 19.4079C12.2269 18.9275 11.4478 18.9275 10.9673 19.4079C10.4867 19.8884 10.4867 20.6675 10.9673 21.1481L17.5571 27.7379C17.7974 27.9782 18.1123 28.0983 18.4271 28.0983C18.742 28.0983 19.057 27.9781 19.2971 27.7379L31.033 16.002C31.5136 15.5216 31.5136 14.7424 31.033 14.2619Z" fill="#EC4C69"/>
</svg>
